FrauncesItalic-LightOpMinGoofyMin.ufo
<glyph name="exclam" format="2">
  <advance width="524"/>
  <unicode hex="0021"/>
  <outline>
    <contour>
      <point x="547" y="1490" type="curve" smooth="yes"/>
      <point x="512" y="1490"/>
      <point x="491" y="1466"/>
      <point x="483" y="1435" type="curve" smooth="yes"/>
      <point x="479" y="1422"/>
      <point x="474" y="1405"/>
      <point x="470" y="1389" type="curve" smooth="yes"/>
      <point x="251" y="459" type="line" smooth="yes"/>
      <point x="245" y="434"/>
      <point x="248" y="425"/>
      <point x="264" y="425" type="curve" smooth="yes"/>
      <point x="279" y="425"/>
      <point x="288" y="435"/>
      <point x="297" y="460" type="curve" smooth="yes"/>
      <point x="567" y="1389" type="line" smooth="yes"/>
      <point x="573" y="1407"/>
      <point x="577" y="1425"/>
      <point x="580" y="1434" type="curve" smooth="yes"/>
      <point x="589" y="1464"/>
      <point x="584" y="1490"/>
    </contour>
    <component base="period" xOffset="32" yOffset="4"/>
  </outline>
</glyph>
<glyph name="ampersand" format="2">
  <advance width="1300"/>
  <unicode hex="0026"/>
  <outline>
    <contour>
      <point x="193" y="217" type="line" smooth="yes"/>
      <point x="35" y="88"/>
      <point x="-48" y="-50"/>
      <point x="-48" y="-216" type="curve" smooth="yes"/>
      <point x="-48" y="-326"/>
      <point x="-11" y="-369"/>
      <point x="36" y="-369" type="curve" smooth="yes"/>
      <point x="70" y="-369"/>
      <point x="96" y="-345"/>
      <point x="96" y="-315" type="curve" smooth="yes"/>
      <point x="96" y="-270"/>
      <point x="21" y="-252"/>
      <point x="21" y="-165" type="curve" smooth="yes"/>
      <point x="21" y="-47"/>
      <point x="77" y="69"/>
      <point x="219" y="191" type="curve" smooth="yes"/>
      <point x="1130" y="921" type="line" smooth="yes"/>
      <point x="1311" y="1070"/>
      <point x="1369" y="1170"/>
      <point x="1369" y="1310" type="curve" smooth="yes"/>
      <point x="1369" y="1401"/>
      <point x="1322" y="1454"/>
      <point x="1277" y="1454" type="curve" smooth="yes"/>
      <point x="1245" y="1454"/>
      <point x="1226" y="1429"/>
      <point x="1226" y="1400" type="curve" smooth="yes"/>
      <point x="1226" y="1350"/>
      <point x="1296" y="1319"/>
      <point x="1296" y="1253" type="curve" smooth="yes"/>
      <point x="1296" y="1156"/>
      <point x="1249" y="1077"/>
      <point x="1115" y="957" type="curve" smooth="yes"/>
    </contour>
    <contour>
      <point x="1060" y="396" type="curve" smooth="yes"/>
      <point x="1060" y="213"/>
      <point x="873" y="20"/>
      <point x="642" y="20" type="curve" smooth="yes"/>
      <point x="410" y="20"/>
      <point x="263" y="184"/>
      <point x="310" y="500" type="curve" smooth="yes"/>
      <point x="354" y="804"/>
      <point x="540" y="1022"/>
      <point x="748" y="1022" type="curve" smooth="yes"/>
      <point x="874" y="1022"/>
      <point x="934" y="945"/>
      <point x="934" y="830" type="curve" smooth="yes"/>
      <point x="934" y="799"/>
      <point x="918" y="764"/>
      <point x="894" y="739" type="curve"/>
      <point x="920" y="755"/>
      <point x="944" y="762"/>
      <point x="980" y="762" type="curve" smooth="yes"/>
      <point x="1004" y="762"/>
      <point x="1019" y="787"/>
      <point x="1019" y="823" type="curve" smooth="yes"/>
      <point x="1019" y="954"/>
      <point x="933" y="1055"/>
      <point x="769" y="1055" type="curve" smooth="yes"/>
      <point x="507" y="1055"/>
      <point x="287" y="824"/>
      <point x="229" y="502" type="curve" smooth="yes"/>
      <point x="173" y="179"/>
      <point x="355" y="-19"/>
      <point x="613" y="-19" type="curve" smooth="yes"/>
      <point x="934" y="-19"/>
      <point x="1150" y="237"/>
      <point x="1150" y="528" type="curve" smooth="yes"/>
      <point x="1150" y="581"/>
      <point x="1133" y="612"/>
      <point x="1095" y="612" type="curve" smooth="yes"/>
      <point x="1058" y="612"/>
      <point x="1036" y="581"/>
      <point x="1036" y="542" type="curve" smooth="yes"/>
      <point x="1036" y="501"/>
      <point x="1060" y="463"/>
    </contour>
  </outline>
</glyph>
<glyph name="parenleft" format="2">
  <advance width="699"/>
  <unicode hex="0028"/>
  <outline>
    <contour>
      <point x="263" y="685" type="curve" smooth="yes"/>
      <point x="149" y="262"/>
      <point x="259" y="-127"/>
      <point x="432" y="-241" type="curve" smooth="yes"/>
      <point x="448" y="-251"/>
      <point x="463" y="-250"/>
      <point x="474" y="-240" type="curve" smooth="yes"/>
      <point x="484" y="-230"/>
      <point x="480" y="-216"/>
      <point x="463" y="-202" type="curve" smooth="yes"/>
      <point x="304" y="-56"/>
      <point x="239" y="298"/>
      <point x="343" y="685" type="curve" smooth="yes"/>
      <point x="436" y="1027"/>
      <point x="631" y="1302"/>
      <point x="890" y="1464" type="curve" smooth="yes"/>
      <point x="916" y="1480"/>
      <point x="927" y="1491"/>
      <point x="924" y="1502" type="curve" smooth="yes"/>
      <point x="920" y="1513"/>
      <point x="904" y="1514"/>
      <point x="883" y="1503" type="curve" smooth="yes"/>
      <point x="614" y="1373"/>
      <point x="361" y="1055"/>
    </contour>
  </outline>
</glyph>
<glyph name="plus" format="2">
  <advance width="1097"/>
  <unicode hex="002B"/>
  <outline>
    <contour>
      <point x="515" y="297" type="curve" smooth="yes"/>
      <point x="534" y="297"/>
      <point x="551" y="309"/>
      <point x="557" y="325" type="curve" smooth="yes"/>
      <point x="745" y="1037" type="line" smooth="yes"/>
      <point x="751" y="1053"/>
      <point x="744" y="1067"/>
      <point x="723" y="1067" type="curve" smooth="yes"/>
      <point x="706" y="1067"/>
      <point x="691" y="1054"/>
      <point x="685" y="1039" type="curve" smooth="yes"/>
      <point x="496" y="328" type="line" smooth="yes"/>
      <point x="491" y="311"/>
      <point x="497" y="297"/>
    </contour>
    <component base="minus" xOffset="8"/>
  </outline>
</glyph>
<glyph name="comma" format="2">
  <advance width="406"/>
  <unicode hex="002C"/>
  <outline>
    <contour>
      <point x="161" y="1" type="curve" smooth="yes"/>
      <point x="181" y="1" type="line" smooth="yes"/>
      <point x="204" y="1"/>
      <point x="215" y="2"/>
      <point x="203" y="-35" type="curve" smooth="yes"/>
      <point x="179" y="-131"/>
      <point x="99" y="-234"/>
      <point x="18" y="-266" type="curve" smooth="yes"/>
      <point x="-3" y="-272"/>
      <point x="-8" y="-279"/>
      <point x="-12" y="-290" type="curve" smooth="yes"/>
      <point x="-14" y="-297"/>
      <point x="-8" y="-301"/>
      <point x="5" y="-300" type="curve" smooth="yes"/>
      <point x="61" y="-285"/>
      <point x="207" y="-197"/>
      <point x="262" y="3" type="curve" smooth="yes"/>
      <point x="291" y="106"/>
      <point x="265" y="158"/>
      <point x="213" y="158" type="curve" smooth="yes"/>
      <point x="164" y="158"/>
      <point x="118" y="125"/>
      <point x="106" y="79" type="curve" smooth="yes"/>
      <point x="94" y="35"/>
      <point x="121" y="1"/>
    </contour>
  </outline>
</glyph>
<glyph name="slash" format="2">
  <advance width="856"/>
  <unicode hex="002F"/>
  <outline>
    <contour>
      <point x="487" y="623" type="curve" smooth="yes"/>
      <point x="601" y="844"/>
      <point x="866" y="1346"/>
      <point x="982" y="1579" type="curve" smooth="yes"/>
      <point x="993" y="1601"/>
      <point x="991" y="1630"/>
      <point x="980" y="1633" type="curve" smooth="yes"/>
      <point x="960" y="1638"/>
      <point x="940" y="1625"/>
      <point x="926" y="1599" type="curve" smooth="yes"/>
      <point x="800" y="1355"/>
      <point x="553" y="853"/>
      <point x="445" y="638" type="curve" smooth="yes"/>
      <point x="337" y="423"/>
      <point x="76" y="-70"/>
      <point x="-50" y="-312" type="curve" smooth="yes"/>
      <point x="-64" y="-338"/>
      <point x="-60" y="-359"/>
      <point x="-41" y="-364" type="curve" smooth="yes"/>
      <point x="-20" y="-370"/>
      <point x="0" y="-358"/>
      <point x="15" y="-332" type="curve" smooth="yes"/>
      <point x="131" y="-99"/>
      <point x="378" y="405"/>
    </contour>
  </outline>
</glyph>
<glyph name="zero" format="2">
  <advance width="1216"/>
  <unicode hex="0030"/>
  <outline>
    <contour>
      <point x="883" y="1419" type="curve" smooth="yes"/>
      <point x="575" y="1419"/>
      <point x="304" y="1148"/>
      <point x="183" y="705" type="curve" smooth="yes"/>
      <point x="62" y="255"/>
      <point x="173" y="-20"/>
      <point x="481" y="-20" type="curve" smooth="yes"/>
      <point x="777" y="-20"/>
      <point x="1051" y="241"/>
      <point x="1174" y="701" type="curve" smooth="yes"/>
      <point x="1295" y="1146"/>
      <point x="1188" y="1419"/>
    </contour>
    <contour>
      <point x="1087" y="675" type="curve" smooth="yes"/>
      <point x="975" y="239"/>
      <point x="735" y="22"/>
      <point x="499" y="22" type="curve" smooth="yes"/>
      <point x="245" y="22"/>
      <point x="143" y="250"/>
      <point x="270" y="728" type="curve" smooth="yes"/>
      <point x="378" y="1133"/>
      <point x="610" y="1377"/>
      <point x="864" y="1377" type="curve" smooth="yes"/>
      <point x="1116" y="1377"/>
      <point x="1212" y="1149"/>
    </contour>
  </outline>
</glyph>
<glyph name="one" format="2">
  <advance width="819"/>
  <unicode hex="0031"/>
  <outline>
    <contour>
      <point x="376" y="1297" type="line" smooth="yes"/>
      <point x="352" y="1297"/>
      <point x="343" y="1304"/>
      <point x="348" y="1319" type="curve" smooth="yes"/>
      <point x="352" y="1331"/>
      <point x="368" y="1340"/>
      <point x="390" y="1340" type="curve" smooth="yes"/>
      <point x="581" y="1343" type="line" smooth="yes"/>
      <point x="616" y="1344"/>
      <point x="635" y="1355"/>
      <point x="668" y="1411" type="curve" smooth="yes"/>
      <point x="682" y="1432"/>
      <point x="697" y="1442"/>
      <point x="713" y="1442" type="curve" smooth="yes"/>
      <point x="733" y="1442"/>
      <point x="742" y="1432"/>
      <point x="734" y="1410" type="curve" smooth="yes"/>
      <point x="391" y="112" type="line" smooth="yes"/>
      <point x="379" y="76"/>
      <point x="390" y="54"/>
      <point x="441" y="51" type="curve" smooth="yes"/>
      <point x="604" y="35" type="line" smooth="yes"/>
      <point x="623" y="33"/>
      <point x="633" y="27"/>
      <point x="629" y="16" type="curve" smooth="yes"/>
      <point x="626" y="5"/>
      <point x="614" y="0"/>
      <point x="595" y="0" type="curve" smooth="yes"/>
      <point x="17" y="0" type="line" smooth="yes"/>
      <point x="-1" y="0"/>
      <point x="-10" y="6"/>
      <point x="-6" y="17" type="curve" smooth="yes"/>
      <point x="-2" y="28"/>
      <point x="12" y="35"/>
      <point x="32" y="36" type="curve" smooth="yes"/>
      <point x="222" y="51" type="line" smooth="yes"/>
      <point x="267" y="53"/>
      <point x="301" y="76"/>
      <point x="313" y="112" type="curve" smooth="yes"/>
      <point x="605" y="1233" type="line" smooth="yes"/>
      <point x="620" y="1281"/>
      <point x="609" y="1294"/>
      <point x="567" y="1294" type="curve" smooth="yes"/>
    </contour>
  </outline>
</glyph>
<glyph name="six" format="2">
  <advance width="1097"/>
  <unicode hex="0036"/>
  <outline>
    <contour>
      <point x="895" y="1419" type="curve" smooth="yes"/>
      <point x="595" y="1419"/>
      <point x="314" y="1186"/>
      <point x="170" y="652" type="curve" smooth="yes"/>
      <point x="51" y="214"/>
      <point x="169" y="-19"/>
      <point x="463" y="-19" type="curve" smooth="yes"/>
      <point x="713" y="-19"/>
      <point x="931" y="158"/>
      <point x="1004" y="426" type="curve" smooth="yes"/>
      <point x="1073" y="682"/>
      <point x="960" y="845"/>
      <point x="708" y="845" type="curve" smooth="yes"/>
      <point x="475" y="845"/>
      <point x="227" y="665"/>
      <point x="163" y="420" type="curve"/>
      <point x="195" y="410" type="line"/>
      <point x="250" y="627"/>
      <point x="472" y="798"/>
      <point x="674" y="798" type="curve" smooth="yes"/>
      <point x="885" y="798"/>
      <point x="987" y="664"/>
      <point x="921" y="413" type="curve" smooth="yes"/>
      <point x="856" y="161"/>
      <point x="686" y="22"/>
      <point x="485" y="22" type="curve" smooth="yes"/>
      <point x="248" y="22"/>
      <point x="130" y="202"/>
      <point x="255" y="672" type="curve" smooth="yes"/>
      <point x="393" y="1187"/>
      <point x="653" y="1377"/>
      <point x="873" y="1377" type="curve" smooth="yes"/>
      <point x="1030" y="1377"/>
      <point x="1084" y="1305"/>
      <point x="1054" y="1191" type="curve" smooth="yes"/>
      <point x="1038" y="1132" type="line" smooth="yes"/>
      <point x="1025" y="1084"/>
      <point x="1036" y="1062"/>
      <point x="1071" y="1062" type="curve" smooth="yes"/>
      <point x="1110" y="1062"/>
      <point x="1139" y="1093"/>
      <point x="1155" y="1151" type="curve" smooth="yes"/>
      <point x="1195" y="1295"/>
      <point x="1100" y="1419"/>
    </contour>
  </outline>
</glyph>
<glyph name="seven" format="2">
  <advance width="978"/>
  <unicode hex="0037"/>
  <outline>
    <contour>
      <point x="1142" y="1349" type="line"/>
      <point x="717" y="784" type="line" smooth="yes"/>
      <point x="485" y="529"/>
      <point x="341" y="351"/>
      <point x="286" y="164" type="curve" smooth="yes"/>
      <point x="252" y="43"/>
      <point x="271" y="-15"/>
      <point x="323" y="-15" type="curve" smooth="yes"/>
      <point x="364" y="-15"/>
      <point x="393" y="6"/>
      <point x="405" y="48" type="curve" smooth="yes"/>
      <point x="420" y="102"/>
      <point x="362" y="173"/>
      <point x="387" y="260" type="curve" smooth="yes"/>
      <point x="425" y="393"/>
      <point x="558" y="553"/>
      <point x="763" y="771" type="curve" smooth="yes"/>
      <point x="1166" y="1328" type="line" smooth="yes"/>
      <point x="1187" y="1346"/>
      <point x="1195" y="1359"/>
      <point x="1200" y="1373" type="curve" smooth="yes"/>
      <point x="1206" y="1390"/>
      <point x="1197" y="1400"/>
      <point x="1164" y="1400" type="curve" smooth="yes"/>
      <point x="444" y="1400" type="line" smooth="yes"/>
      <point x="408" y="1400"/>
      <point x="390" y="1387"/>
      <point x="377" y="1361" type="curve" smooth="yes"/>
      <point x="298" y="1169" type="line" smooth="yes"/>
      <point x="286" y="1146"/>
      <point x="293" y="1138"/>
      <point x="306" y="1137" type="curve" smooth="yes"/>
      <point x="319" y="1137"/>
      <point x="330" y="1145"/>
      <point x="339" y="1159" type="curve" smooth="yes"/>
      <point x="407" y="1284" type="line" smooth="yes"/>
      <point x="428" y="1315"/>
      <point x="446" y="1330"/>
      <point x="483" y="1330" type="curve" smooth="yes"/>
      <point x="1144" y="1330" type="line"/>
    </contour>
  </outline>
</glyph>
<glyph name="less" format="2">
  <advance width="1007"/>
  <unicode hex="003C"/>
  <outline>
    <contour>
      <point x="244" y="686" type="line"/>
      <point x="837" y="307" type="line" smooth="yes"/>
      <point x="855" y="299"/>
      <point x="862" y="288"/>
      <point x="859" y="278" type="curve" smooth="yes"/>
      <point x="857" y="270"/>
      <point x="847" y="265"/>
      <point x="832" y="265" type="curve" smooth="yes"/>
      <point x="820" y="265"/>
      <point x="809" y="270"/>
      <point x="794" y="278" type="curve" smooth="yes"/>
      <point x="221" y="640" type="line" smooth="yes"/>
      <point x="197" y="651"/>
      <point x="186" y="667"/>
      <point x="192" y="688" type="curve" smooth="yes"/>
      <point x="197" y="707"/>
      <point x="218" y="721"/>
      <point x="252" y="733" type="curve" smooth="yes"/>
      <point x="1005" y="1095" type="line" smooth="yes"/>
      <point x="1024" y="1101"/>
      <point x="1039" y="1105"/>
      <point x="1052" y="1105" type="curve" smooth="yes"/>
      <point x="1067" y="1105"/>
      <point x="1072" y="1098"/>
      <point x="1069" y="1088" type="curve" smooth="yes"/>
      <point x="1064" y="1079"/>
      <point x="1050" y="1068"/>
      <point x="1027" y="1060" type="curve" smooth="yes"/>
      <point x="242" y="681" type="line"/>
    </contour>
  </outline>
</glyph>
<glyph name="at" format="2">
  <advance width="1631"/>
  <unicode hex="0040"/>
  <outline>
    <contour>
      <point x="541" y="407" type="curve" smooth="yes"/>
      <point x="561" y="718"/>
      <point x="834" y="995"/>
      <point x="1084" y="995" type="curve" smooth="yes"/>
      <point x="1136" y="995"/>
      <point x="1162" y="978"/>
      <point x="1159" y="936" type="curve" smooth="yes"/>
      <point x="1112" y="583"/>
      <point x="839" y="198"/>
      <point x="654" y="198" type="curve" smooth="yes"/>
      <point x="575" y="198"/>
      <point x="528" y="255"/>
    </contour>
    <contour>
      <point x="1099" y="155" type="curve" smooth="yes"/>
      <point x="1281" y="155"/>
      <point x="1477" y="318"/>
      <point x="1552" y="607" type="curve" smooth="yes"/>
      <point x="1678" y="1098"/>
      <point x="1445" y="1388"/>
      <point x="1080" y="1388" type="curve" smooth="yes"/>
      <point x="611" y="1388"/>
      <point x="259" y="1052"/>
      <point x="142" y="596" type="curve" smooth="yes"/>
      <point x="11" y="86"/>
      <point x="259" y="-234"/>
      <point x="676" y="-234" type="curve" smooth="yes"/>
      <point x="947" y="-234"/>
      <point x="1222" y="-125"/>
      <point x="1429" y="86" type="curve" smooth="yes"/>
      <point x="1446" y="100"/>
      <point x="1455" y="112"/>
      <point x="1446" y="123" type="curve" smooth="yes"/>
      <point x="1437" y="133"/>
      <point x="1421" y="128"/>
      <point x="1404" y="114" type="curve" smooth="yes"/>
      <point x="1213" y="-77"/>
      <point x="963" y="-192"/>
      <point x="691" y="-192" type="curve" smooth="yes"/>
      <point x="296" y="-192"/>
      <point x="77" y="126"/>
      <point x="198" y="596" type="curve" smooth="yes"/>
      <point x="308" y="1030"/>
      <point x="644" y="1345"/>
      <point x="1065" y="1345" type="curve" smooth="yes"/>
      <point x="1403" y="1345"/>
      <point x="1611" y="1062"/>
      <point x="1495" y="606" type="curve" smooth="yes"/>
      <point x="1425" y="327"/>
      <point x="1254" y="199"/>
      <point x="1116" y="199" type="curve" smooth="yes"/>
      <point x="1066" y="199"/>
      <point x="1039" y="236"/>
      <point x="1063" y="335" type="curve" smooth="yes"/>
      <point x="1209" y="914" type="line" smooth="yes"/>
      <point x="1217" y="937"/>
      <point x="1242" y="954"/>
      <point x="1242" y="978" type="curve" smooth="yes"/>
      <point x="1242" y="1011"/>
      <point x="1191" y="1035"/>
      <point x="1104" y="1035" type="curve" smooth="yes"/>
      <point x="812" y="1035"/>
      <point x="495" y="732"/>
      <point x="478" y="401" type="curve" smooth="yes"/>
      <point x="463" y="222"/>
      <point x="527" y="155"/>
      <point x="625" y="155" type="curve" smooth="yes"/>
      <point x="794" y="155"/>
      <point x="978" y="348"/>
      <point x="1110" y="677" type="curve"/>
      <point x="1101" y="681" type="line"/>
      <point x="1015" y="398"/>
      <point x="999" y="324"/>
      <point x="990" y="274" type="curve" smooth="yes"/>
      <point x="974" y="200"/>
      <point x="1018" y="155"/>
    </contour>
  </outline>
</glyph>
<glyph name="A" format="2">
  <advance width="1202"/>
  <unicode hex="0041"/>
  <anchor x="958" y="1532.0" name="center"/>
  <outline>
    <contour>
      <point x="187" y="166" type="curve" smooth="yes"/>
      <point x="777" y="1137" type="line" smooth="yes"/>
      <point x="846" y="1222"/>
      <point x="902" y="1277"/>
      <point x="927" y="1296" type="curve"/>
      <point x="911" y="1307" type="line"/>
      <point x="909" y="1118"/>
      <point x="892" y="287"/>
      <point x="886" y="112" type="curve" smooth="yes"/>
      <point x="884" y="76"/>
      <point x="862" y="60"/>
      <point x="824" y="53" type="curve" smooth="yes"/>
      <point x="731" y="33" type="line" smooth="yes"/>
      <point x="720" y="31"/>
      <point x="710" y="24"/>
      <point x="710" y="16" type="curve" smooth="yes"/>
      <point x="710" y="6"/>
      <point x="722" y="0"/>
      <point x="733" y="0" type="curve" smooth="yes"/>
      <point x="1062" y="0" type="line" smooth="yes"/>
      <point x="1084" y="0"/>
      <point x="1093" y="7"/>
      <point x="1093" y="17" type="curve" smooth="yes"/>
      <point x="1093" y="26"/>
      <point x="1084" y="33"/>
      <point x="1066" y="34" type="curve" smooth="yes"/>
      <point x="996" y="46"/>
      <point x="959" y="64"/>
      <point x="959" y="105" type="curve" smooth="yes"/>
      <point x="958" y="282"/>
      <point x="976" y="1098"/>
      <point x="978" y="1274" type="curve" smooth="yes"/>
      <point x="980" y="1338"/>
      <point x="1006" y="1373"/>
      <point x="1050" y="1376" type="curve" smooth="yes"/>
      <point x="1071" y="1377"/>
      <point x="1082" y="1386"/>
      <point x="1082" y="1397" type="curve" smooth="yes"/>
      <point x="1082" y="1408"/>
      <point x="1072" y="1414"/>
      <point x="1052" y="1414" type="curve" smooth="yes"/>
      <point x="969" y="1414"/>
      <point x="876" y="1338"/>
      <point x="744" y="1163" type="curve" smooth="yes"/>
      <point x="120" y="159" type="line" smooth="yes"/>
      <point x="78" y="80"/>
      <point x="35" y="50"/>
      <point x="-12" y="46" type="curve" smooth="yes"/>
      <point x="-39" y="42"/>
      <point x="-55" y="35"/>
      <point x="-55" y="22" type="curve" smooth="yes"/>
      <point x="-55" y="7"/>
      <point x="-41" y="0"/>
      <point x="-12" y="0" type="curve" smooth="yes"/>
      <point x="271" y="0" type="line" smooth="yes"/>
      <point x="293" y="0"/>
      <point x="305" y="7"/>
      <point x="305" y="19" type="curve" smooth="yes"/>
      <point x="305" y="30"/>
      <point x="296" y="39"/>
      <point x="276" y="41" type="curve" smooth="yes"/>
      <point x="206" y="48" type="line" smooth="yes"/>
      <point x="160" y="53"/>
      <point x="148" y="98"/>
    </contour>
    <contour>
      <point x="350" y="479" type="line"/>
      <point x="933" y="479" type="line"/>
      <point x="937" y="513" type="line"/>
      <point x="378" y="513" type="line"/>
    </contour>
  </outline>
</glyph>
<glyph name="H" format="2">
  <advance width="1494"/>
  <unicode hex="0048"/>
  <anchor x="1038" y="1498" name="center"/>
  <outline>
    <contour>
      <point x="300" y="127" type="curve" smooth="yes"/>
      <point x="327" y="310"/>
      <point x="541" y="1042"/>
      <point x="603" y="1288" type="curve" smooth="yes"/>
      <point x="613" y="1324"/>
      <point x="638" y="1341"/>
      <point x="686" y="1348" type="curve" smooth="yes"/>
      <point x="761" y="1364" type="line" smooth="yes"/>
      <point x="795" y="1370"/>
      <point x="805" y="1375"/>
      <point x="805" y="1388" type="curve" smooth="yes"/>
      <point x="805" y="1397"/>
      <point x="798" y="1400"/>
      <point x="776" y="1400" type="curve" smooth="yes"/>
      <point x="429" y="1400" type="line" smooth="yes"/>
      <point x="395" y="1400"/>
      <point x="376" y="1397"/>
      <point x="376" y="1386" type="curve" smooth="yes"/>
      <point x="376" y="1372"/>
      <point x="385" y="1366"/>
      <point x="413" y="1362" type="curve" smooth="yes"/>
      <point x="480" y="1350" type="line" smooth="yes"/>
      <point x="523" y="1343"/>
      <point x="530" y="1322"/>
      <point x="520" y="1278" type="curve" smooth="yes"/>
      <point x="482" y="1047"/>
      <point x="266" y="323"/>
      <point x="222" y="125" type="curve" smooth="yes"/>
      <point x="206" y="80"/>
      <point x="176" y="52"/>
      <point x="125" y="46" type="curve" smooth="yes"/>
      <point x="55" y="37" type="line" smooth="yes"/>
      <point x="28" y="34"/>
      <point x="17" y="26"/>
      <point x="19" y="16" type="curve" smooth="yes"/>
      <point x="19" y="5"/>
      <point x="26" y="0"/>
      <point x="50" y="0" type="curve" smooth="yes"/>
      <point x="403" y="0" type="line" smooth="yes"/>
      <point x="421" y="0"/>
      <point x="439" y="4"/>
      <point x="439" y="14" type="curve" smooth="yes"/>
      <point x="439" y="27"/>
      <point x="431" y="34"/>
      <point x="406" y="37" type="curve" smooth="yes"/>
      <point x="342" y="47" type="line" smooth="yes"/>
      <point x="298" y="52"/>
      <point x="290" y="79"/>
    </contour>
    <contour>
      <point x="409" y="674" type="line"/>
      <point x="395" y="637" type="line"/>
      <point x="1215" y="637" type="line"/>
      <point x="1230" y="674" type="line"/>
    </contour>
    <contour>
      <point x="1129" y="127" type="curve" smooth="yes"/>
      <point x="1155" y="310"/>
      <point x="1370" y="1042"/>
      <point x="1431" y="1288" type="curve" smooth="yes"/>
      <point x="1442" y="1324"/>
      <point x="1467" y="1341"/>
      <point x="1514" y="1348" type="curve" smooth="yes"/>
      <point x="1591" y="1364" type="line" smooth="yes"/>
      <point x="1623" y="1370"/>
      <point x="1633" y="1375"/>
      <point x="1633" y="1388" type="curve" smooth="yes"/>
      <point x="1633" y="1397"/>
      <point x="1626" y="1400"/>
      <point x="1605" y="1400" type="curve" smooth="yes"/>
      <point x="1257" y="1400" type="line" smooth="yes"/>
      <point x="1223" y="1400"/>
      <point x="1205" y="1397"/>
      <point x="1205" y="1386" type="curve" smooth="yes"/>
      <point x="1205" y="1372"/>
      <point x="1213" y="1366"/>
      <point x="1241" y="1362" type="curve" smooth="yes"/>
      <point x="1308" y="1350" type="line" smooth="yes"/>
      <point x="1351" y="1343"/>
      <point x="1359" y="1322"/>
      <point x="1348" y="1278" type="curve" smooth="yes"/>
      <point x="1310" y="1047"/>
      <point x="1094" y="323"/>
      <point x="1050" y="125" type="curve" smooth="yes"/>
      <point x="1034" y="80"/>
      <point x="1005" y="52"/>
      <point x="954" y="46" type="curve" smooth="yes"/>
      <point x="884" y="37" type="line" smooth="yes"/>
      <point x="857" y="34"/>
      <point x="846" y="26"/>
      <point x="847" y="16" type="curve" smooth="yes"/>
      <point x="847" y="5"/>
      <point x="855" y="0"/>
      <point x="879" y="0" type="curve" smooth="yes"/>
      <point x="1231" y="0" type="line" smooth="yes"/>
      <point x="1250" y="0"/>
      <point x="1268" y="4"/>
      <point x="1268" y="14" type="curve" smooth="yes"/>
      <point x="1268" y="27"/>
      <point x="1259" y="34"/>
      <point x="1234" y="37" type="curve" smooth="yes"/>
      <point x="1171" y="47" type="line" smooth="yes"/>
      <point x="1126" y="52"/>
      <point x="1118" y="79"/>
    </contour>
  </outline>
</glyph>
<glyph name="Q" format="2">
  <advance width="1472"/>
  <unicode hex="0051"/>
  <outline>
    <contour>
      <point x="681" y="352" type="curve" smooth="yes"/>
      <point x="564" y="-73"/>
      <point x="699" y="-302"/>
      <point x="947" y="-317" type="curve" smooth="yes"/>
      <point x="1035" y="-324"/>
      <point x="1072" y="-313"/>
      <point x="1089" y="-289" type="curve" smooth="yes"/>
      <point x="1132" y="-222" type="line" smooth="yes"/>
      <point x="1139" y="-212"/>
      <point x="1131" y="-204"/>
      <point x="1124" y="-203" type="curve" smooth="yes"/>
      <point x="1108" y="-199"/>
      <point x="1070" y="-252"/>
      <point x="923" y="-232" type="curve" smooth="yes"/>
      <point x="734" y="-207"/>
      <point x="622" y="-55"/>
      <point x="725" y="346" type="curve" smooth="yes"/>
      <point x="731" y="366"/>
      <point x="729" y="379"/>
      <point x="712" y="381" type="curve" smooth="yes"/>
      <point x="692" y="384"/>
      <point x="686" y="366"/>
    </contour>
    <contour>
      <point x="1006" y="1426" type="curve" smooth="yes"/>
      <point x="645" y="1426"/>
      <point x="329" y="1138"/>
      <point x="216" y="752" type="curve" smooth="yes"/>
      <point x="75" y="265"/>
      <point x="287" y="-26"/>
      <point x="614" y="-26" type="curve" smooth="yes"/>
      <point x="958" y="-26"/>
      <point x="1282" y="219"/>
      <point x="1402" y="682" type="curve" smooth="yes"/>
      <point x="1511" y="1107"/>
      <point x="1320" y="1426"/>
    </contour>
    <contour>
      <point x="637" y="14" type="curve" smooth="yes"/>
      <point x="331" y="14"/>
      <point x="167" y="257"/>
      <point x="292" y="738" type="curve" smooth="yes"/>
      <point x="389" y="1121"/>
      <point x="679" y="1386"/>
      <point x="983" y="1386" type="curve" smooth="yes"/>
      <point x="1260" y="1386"/>
      <point x="1442" y="1125"/>
      <point x="1326" y="695" type="curve" smooth="yes"/>
      <point x="1193" y="221"/>
      <point x="901" y="14"/>
    </contour>
  </outline>
</glyph>
<glyph name="S" format="2">
  <advance width="1075"/>
  <unicode hex="0053"/>
  <anchor x="822" y="1528" name="center"/>
  <outline>
    <contour>
      <point x="479" y="-20" type="curve" smooth="yes"/>
      <point x="702" y="-20"/>
      <point x="870" y="113"/>
      <point x="890" y="328" type="curve" smooth="yes"/>
      <point x="905" y="469"/>
      <point x="850" y="572"/>
      <point x="654" y="708" type="curve" smooth="yes"/>
      <point x="472" y="842"/>
      <point x="402" y="943"/>
      <point x="423" y="1090" type="curve" smooth="yes"/>
      <point x="441" y="1249"/>
      <point x="581" y="1383"/>
      <point x="802" y="1383" type="curve" smooth="yes"/>
      <point x="941" y="1383"/>
      <point x="1032" y="1320"/>
      <point x="1062" y="1192" type="curve" smooth="yes"/>
      <point x="1074" y="1140" type="line" smooth="yes"/>
      <point x="1080" y="1118"/>
      <point x="1095" y="1100"/>
      <point x="1123" y="1100" type="curve" smooth="yes"/>
      <point x="1146" y="1100"/>
      <point x="1165" y="1124"/>
      <point x="1165" y="1159" type="curve" smooth="yes"/>
      <point x="1165" y="1293"/>
      <point x="1038" y="1420"/>
      <point x="812" y="1420" type="curve" smooth="yes"/>
      <point x="535" y="1420"/>
      <point x="374" y="1235"/>
      <point x="353" y="1054" type="curve" smooth="yes"/>
      <point x="332" y="892"/>
      <point x="416" y="785"/>
      <point x="608" y="650" type="curve" smooth="yes"/>
      <point x="789" y="525"/>
      <point x="836" y="431"/>
      <point x="814" y="299" type="curve" smooth="yes"/>
      <point x="790" y="130"/>
      <point x="658" y="17"/>
      <point x="468" y="17" type="curve" smooth="yes"/>
      <point x="289" y="17"/>
      <point x="163" y="115"/>
      <point x="162" y="301" type="curve" smooth="yes"/>
      <point x="162" y="355" type="line" smooth="yes"/>
      <point x="162" y="372"/>
      <point x="151" y="384"/>
      <point x="137" y="384" type="curve" smooth="yes"/>
      <point x="124" y="384"/>
      <point x="113" y="374"/>
      <point x="110" y="356" type="curve" smooth="yes"/>
      <point x="69" y="18" type="line" smooth="yes"/>
      <point x="65" y="-1"/>
      <point x="75" y="-11"/>
      <point x="94" y="-11" type="curve" smooth="yes"/>
      <point x="116" y="-11"/>
      <point x="142" y="91"/>
      <point x="162" y="91" type="curve" smooth="yes"/>
      <point x="186" y="91"/>
      <point x="237" y="-20"/>
    </contour>
  </outline>
</glyph>
<glyph name="X" format="2">
  <advance width="1206"/>
  <unicode hex="0058"/>
  <outline>
    <contour>
      <point x="649" y="725" type="line"/>
      <point x="252" y="196" type="line" smooth="yes"/>
      <point x="155" y="78"/>
      <point x="97" y="44"/>
      <point x="-3" y="32" type="curve" smooth="yes"/>
      <point x="-24" y="29"/>
      <point x="-31" y="25"/>
      <point x="-31" y="15" type="curve" smooth="yes"/>
      <point x="-31" y="7"/>
      <point x="-22" y="0"/>
      <point x="-6" y="0" type="curve" smooth="yes"/>
      <point x="320" y="0" type="line" smooth="yes"/>
      <point x="341" y="0"/>
      <point x="355" y="8"/>
      <point x="355" y="21" type="curve" smooth="yes"/>
      <point x="355" y="31"/>
      <point x="347" y="35"/>
      <point x="325" y="38" type="curve" smooth="yes"/>
      <point x="280" y="45" type="line" smooth="yes"/>
      <point x="231" y="52"/>
      <point x="228" y="86"/>
      <point x="282" y="165" type="curve" smooth="yes"/>
      <point x="666" y="688" type="line"/>
    </contour>
    <contour>
      <point x="518" y="1287" type="curve" smooth="yes"/>
      <point x="507" y="1322"/>
      <point x="520" y="1349"/>
      <point x="551" y="1354" type="curve" smooth="yes"/>
      <point x="616" y="1364" type="line" smooth="yes"/>
      <point x="638" y="1368"/>
      <point x="652" y="1374"/>
      <point x="652" y="1384" type="curve" smooth="yes"/>
      <point x="653" y="1394"/>
      <point x="643" y="1400"/>
      <point x="619" y="1400" type="curve" smooth="yes"/>
      <point x="345" y="1400" type="line" smooth="yes"/>
      <point x="325" y="1400"/>
      <point x="310" y="1395"/>
      <point x="309" y="1384" type="curve" smooth="yes"/>
      <point x="309" y="1374"/>
      <point x="318" y="1366"/>
      <point x="344" y="1363" type="curve" smooth="yes"/>
      <point x="396" y="1357"/>
      <point x="416" y="1340"/>
      <point x="437" y="1287" type="curve" smooth="yes"/>
      <point x="499" y="1124"/>
      <point x="798" y="251"/>
      <point x="849" y="118" type="curve" smooth="yes"/>
      <point x="863" y="77"/>
      <point x="847" y="51"/>
      <point x="811" y="45" type="curve" smooth="yes"/>
      <point x="758" y="36" type="line" smooth="yes"/>
      <point x="733" y="32"/>
      <point x="722" y="25"/>
      <point x="721" y="14" type="curve" smooth="yes"/>
      <point x="721" y="5"/>
      <point x="730" y="0"/>
      <point x="755" y="0" type="curve" smooth="yes"/>
      <point x="1032" y="0" type="line" smooth="yes"/>
      <point x="1054" y="0"/>
      <point x="1071" y="8"/>
      <point x="1071" y="18" type="curve" smooth="yes"/>
      <point x="1071" y="27"/>
      <point x="1064" y="32"/>
      <point x="1038" y="35" type="curve" smooth="yes"/>
      <point x="976" y="45"/>
      <point x="941" y="64"/>
      <point x="924" y="112" type="curve" smooth="yes"/>
      <point x="855" y="275"/>
      <point x="560" y="1148"/>
    </contour>
    <contour>
      <point x="702" y="697" type="line"/>
      <point x="1053" y="1184" type="line" smooth="yes"/>
      <point x="1122" y="1277"/>
      <point x="1168" y="1318"/>
      <point x="1219" y="1330" type="curve" smooth="yes"/>
      <point x="1263" y="1341"/>
      <point x="1292" y="1333"/>
      <point x="1328" y="1333" type="curve" smooth="yes"/>
      <point x="1370" y="1333"/>
      <point x="1396" y="1349"/>
      <point x="1396" y="1375" type="curve" smooth="yes"/>
      <point x="1396" y="1399"/>
      <point x="1374" y="1422"/>
      <point x="1327" y="1422" type="curve" smooth="yes"/>
      <point x="1230" y="1422"/>
      <point x="1145" y="1365"/>
      <point x="1017" y="1206" type="curve" smooth="yes"/>
      <point x="682" y="730" type="line"/>
    </contour>
  </outline>
</glyph>
<glyph name="a" format="2">
  <advance width="988"/>
  <unicode hex="0061"/>
  <outline>
    <contour>
      <point x="724" y="194" type="curve" smooth="yes"/>
      <point x="874" y="785" type="line" smooth="yes"/>
      <point x="880" y="809"/>
      <point x="909" y="828"/>
      <point x="909" y="853" type="curve" smooth="yes"/>
      <point x="909" y="888"/>
      <point x="855" y="914"/>
      <point x="762" y="914" type="curve" smooth="yes"/>
      <point x="452.0" y="914.0"/>
      <point x="101.0" y="588.0"/>
      <point x="77" y="241" type="curve" smooth="yes"/>
      <point x="64.0" y="57.0"/>
      <point x="132.9829545454545" y="-15.0"/>
      <point x="244" y="-15" type="curve" smooth="yes"/>
      <point x="427.8471953578337" y="-15.0"/>
      <point x="625" y="178"/>
      <point x="775" y="541" type="curve"/>
      <point x="762" y="545" type="line"/>
      <point x="646" y="187"/>
      <point x="627.0" y="121.0"/>
      <point x="627" y="62" type="curve" smooth="yes"/>
      <point x="627.0" y="7.0"/>
      <point x="658" y="-15"/>
      <point x="706" y="-15" type="curve" smooth="yes"/>
      <point x="767" y="-15"/>
      <point x="838" y="24"/>
      <point x="875" y="88" type="curve" smooth="yes"/>
      <point x="882" y="101"/>
      <point x="885" y="113"/>
      <point x="876" y="117" type="curve" smooth="yes"/>
      <point x="867" y="121"/>
      <point x="857" y="115"/>
      <point x="841" y="99" type="curve" smooth="yes"/>
      <point x="797.0849541728578" y="55.0849541728578"/>
      <point x="771.0" y="38.0"/>
      <point x="742" y="38" type="curve" smooth="yes"/>
      <point x="707.0" y="38"/>
      <point x="693.9142974186921" y="75.4623318296469"/>
    </contour>
    <contour>
      <point x="150" y="253" type="curve" smooth="yes"/>
      <point x="177" y="573"/>
      <point x="469.2895622895623" y="872.0"/>
      <point x="739" y="872" type="curve" smooth="yes"/>
      <point x="788" y="872.0"/>
      <point x="815" y="853"/>
      <point x="809" y="808" type="curve" smooth="yes"/>
      <point x="760.0" y="439"/>
      <point x="469.18181818181813" y="31.0"/>
      <point x="275" y="31" type="curve" smooth="yes"/>
      <point x="186.87050359712228" y="31.0"/>
      <point x="136" y="92"/>
    </contour>
  </outline>
</glyph>
<glyph name="b" format="2">
  <advance width="1014"/>
  <unicode hex="0062"/>
  <outline>
    <contour>
      <point x="421" y="1012" type="line" smooth="yes"/>
      <point x="488" y="1245"/>
      <point x="630" y="1374"/>
      <point x="795" y="1374" type="curve" smooth="yes"/>
      <point x="869" y="1374"/>
      <point x="924" y="1342"/>
      <point x="974" y="1342" type="curve" smooth="yes"/>
      <point x="1015" y="1342"/>
      <point x="1038" y="1356"/>
      <point x="1038" y="1386" type="curve" smooth="yes"/>
      <point x="1038" y="1411"/>
      <point x="1012" y="1434"/>
      <point x="943" y="1434" type="curve" smooth="yes"/>
      <point x="642" y="1434"/>
      <point x="431" y="1293"/>
      <point x="342" y="976" type="curve" smooth="yes"/>
      <point x="84" y="57" type="line" smooth="yes"/>
      <point x="71" y="9"/>
      <point x="80" y="-4"/>
      <point x="97" y="-4" type="curve"/>
      <point x="107.0" y="-4.0"/>
      <point x="115" y="3"/>
      <point x="126" y="28" type="curve" smooth="yes"/>
      <point x="204" y="201" type="line"/>
      <point x="178" y="199" type="line"/>
      <point x="175.99998020366004" y="59.99862415437309"/>
      <point x="274" y="-15.0"/>
      <point x="402" y="-15" type="curve"/>
      <point x="648.5258467023173" y="-15.0"/>
      <point x="953.0" y="301.0"/>
      <point x="953" y="669" type="curve" smooth="yes"/>
      <point x="953.0" y="829.0"/>
      <point x="875.0710659898477" y="912.0"/>
      <point x="751" y="912" type="curve" smooth="yes"/>
      <point x="544.7076923076922" y="912.0"/>
      <point x="338.8542374193892" y="706.6278402197172"/>
      <point x="245" y="467" type="curve"/>
      <point x="265" y="467" type="line"/>
    </contour>
    <contour>
      <point x="716" y="868" type="curve" smooth="yes"/>
      <point x="810" y="868"/>
      <point x="879" y="810"/>
      <point x="879" y="658" type="curve" smooth="yes"/>
      <point x="879.0" y="336.7926665893145"/>
      <point x="610.6378600823045" y="25.0"/>
      <point x="403" y="25" type="curve"/>
      <point x="306" y="25.0"/>
      <point x="221.0" y="80.0"/>
      <point x="221" y="211" type="curve" smooth="yes"/>
      <point x="221.0" y="478.0"/>
      <point x="493.5944333996024" y="868.0"/>
    </contour>
  </outline>
</glyph>
<glyph name="h" format="2">
  <advance width="1071"/>
  <unicode hex="0068"/>
  <anchor x="429" y="980" name="center"/>
  <outline>
    <contour>
      <point x="244" y="298" type="curve" smooth="yes"/>
      <point x="213" y="208"/>
      <point x="201" y="133"/>
      <point x="201" y="102" type="curve" smooth="yes"/>
      <point x="201" y="72"/>
      <point x="207" y="63"/>
      <point x="207" y="36" type="curve" smooth="yes"/>
      <point x="207" y="6"/>
      <point x="175" y="-15"/>
      <point x="139" y="-15" type="curve" smooth="yes"/>
      <point x="104" y="-15"/>
      <point x="95" y="22"/>
      <point x="111" y="78" type="curve" smooth="yes"/>
      <point x="363" y="976" type="line" smooth="yes"/>
      <point x="452" y="1293"/>
      <point x="672" y="1434"/>
      <point x="960" y="1434" type="curve" smooth="yes"/>
      <point x="1033" y="1434"/>
      <point x="1059" y="1411"/>
      <point x="1059" y="1386" type="curve" smooth="yes"/>
      <point x="1059" y="1356"/>
      <point x="1036" y="1342"/>
      <point x="995" y="1342" type="curve" smooth="yes"/>
      <point x="945" y="1342"/>
      <point x="890" y="1374"/>
      <point x="816" y="1374" type="curve" smooth="yes"/>
      <point x="643" y="1374"/>
      <point x="498" y="1236"/>
      <point x="423" y="958" type="curve" smooth="yes"/>
      <point x="276" y="412" type="line"/>
      <point x="259" y="418" type="line"/>
      <point x="416" y="790"/>
      <point x="672" y="914"/>
      <point x="813" y="914" type="curve" smooth="yes"/>
      <point x="965" y="914"/>
      <point x="955" y="818"/>
      <point x="893" y="642" type="curve" smooth="yes"/>
      <point x="735" y="194" type="line" smooth="yes"/>
      <point x="694" y="79"/>
      <point x="709" y="38"/>
      <point x="751" y="38" type="curve" smooth="yes"/>
      <point x="777" y="38"/>
      <point x="807" y="54"/>
      <point x="851" y="99" type="curve" smooth="yes"/>
      <point x="867" y="115"/>
      <point x="877" y="121"/>
      <point x="886" y="117" type="curve" smooth="yes"/>
      <point x="895" y="113"/>
      <point x="892" y="101"/>
      <point x="885" y="88" type="curve" smooth="yes"/>
      <point x="848" y="24"/>
      <point x="781" y="-15"/>
      <point x="720" y="-15" type="curve" smooth="yes"/>
      <point x="647" y="-15"/>
      <point x="617" y="48"/>
      <point x="664" y="183" type="curve" smooth="yes"/>
      <point x="827" y="650" type="line" smooth="yes"/>
      <point x="884" y="813"/>
      <point x="861" y="861"/>
      <point x="776" y="861" type="curve" smooth="yes"/>
      <point x="638" y="861"/>
      <point x="379" y="685"/>
    </contour>
  </outline>
</glyph>
<glyph name="i" format="2">
  <advance width="577"/>
  <unicode hex="0069"/>
  <outline>
    <contour>
      <point x="235" y="195" type="curve" smooth="yes"/>
      <point x="432" y="716" type="line" smooth="yes"/>
      <point x="483" y="850"/>
      <point x="449" y="914"/>
      <point x="376" y="914" type="curve" smooth="yes"/>
      <point x="315" y="914"/>
      <point x="248" y="875"/>
      <point x="211" y="811" type="curve" smooth="yes"/>
      <point x="204" y="798"/>
      <point x="201" y="786"/>
      <point x="210" y="782" type="curve" smooth="yes"/>
      <point x="219" y="778"/>
      <point x="229" y="784"/>
      <point x="245" y="800" type="curve" smooth="yes"/>
      <point x="289" y="845"/>
      <point x="319" y="861"/>
      <point x="345" y="861" type="curve" smooth="yes"/>
      <point x="387.0" y="861.0"/>
      <point x="404" y="819"/>
      <point x="361" y="705" type="curve" smooth="yes"/>
      <point x="164" y="184" type="line" smooth="yes"/>
      <point x="113" y="50"/>
      <point x="147" y="-14"/>
      <point x="220" y="-14" type="curve" smooth="yes"/>
      <point x="281.0" y="-14.0"/>
      <point x="348" y="25"/>
      <point x="385" y="89" type="curve" smooth="yes"/>
      <point x="392" y="102"/>
      <point x="395.0" y="114.0"/>
      <point x="386" y="118" type="curve" smooth="yes"/>
      <point x="377.0" y="122.0"/>
      <point x="367" y="116"/>
      <point x="351" y="100" type="curve" smooth="yes"/>
      <point x="307" y="55"/>
      <point x="277" y="39"/>
      <point x="251" y="39" type="curve" smooth="yes"/>
      <point x="209.0" y="39"/>
      <point x="192" y="81"/>
    </contour>
    <contour>
      <point x="456" y="1165.0" type="curve" smooth="yes"/>
      <point x="506" y="1165.0"/>
      <point x="555" y="1206.0"/>
      <point x="568" y="1254.0" type="curve" smooth="yes"/>
      <point x="582" y="1306.0"/>
      <point x="554" y="1344.0"/>
      <point x="504" y="1344.0" type="curve" smooth="yes"/>
      <point x="456" y="1344.0"/>
      <point x="405" y="1306.0"/>
      <point x="391" y="1254.0" type="curve" smooth="yes"/>
      <point x="378" y="1206.0"/>
      <point x="408" y="1165.0"/>
    </contour>
  </outline>
</glyph>
<glyph name="m" format="2">
  <advance width="1573"/>
  <unicode hex="006D"/>
  <outline>
    <contour>
      <point x="920" y="690"/>
      <point x="935" y="738"/>
      <point x="939" y="795" type="curve" smooth="yes"/>
      <point x="945" y="878"/>
      <point x="909" y="914"/>
      <point x="833" y="914" type="curve" smooth="yes"/>
      <point x="693" y="914"/>
      <point x="437" y="779"/>
      <point x="274" y="379" type="curve"/>
      <point x="258" y="314" type="line"/>
      <point x="422" y="695"/>
      <point x="451" y="775"/>
      <point x="451" y="837" type="curve" smooth="yes"/>
      <point x="451" y="889"/>
      <point x="416" y="914"/>
      <point x="368" y="914" type="curve" smooth="yes"/>
      <point x="307" y="914"/>
      <point x="240" y="875"/>
      <point x="203" y="811" type="curve" smooth="yes"/>
      <point x="196" y="798"/>
      <point x="193" y="786"/>
      <point x="202" y="782" type="curve" smooth="yes"/>
      <point x="211" y="778"/>
      <point x="221" y="784"/>
      <point x="237" y="800" type="curve" smooth="yes"/>
      <point x="281" y="845"/>
      <point x="311" y="861"/>
      <point x="337" y="861" type="curve" smooth="yes"/>
      <point x="379" y="861"/>
      <point x="393" y="820"/>
      <point x="353" y="705" type="curve" smooth="yes"/>
      <point x="156" y="140" type="line" smooth="yes"/>
      <point x="115" y="22"/>
      <point x="126" y="-15"/>
      <point x="169" y="-15" type="curve" smooth="yes"/>
      <point x="204" y="-15"/>
      <point x="233" y="7"/>
      <point x="233" y="42" type="curve" smooth="yes"/>
      <point x="233" y="67"/>
      <point x="221" y="76"/>
      <point x="221" y="106" type="curve" smooth="yes"/>
      <point x="221" y="128"/>
      <point x="227" y="156"/>
      <point x="276" y="298" type="curve" smooth="yes"/>
      <point x="411" y="685"/>
      <point x="664" y="861"/>
      <point x="796" y="861" type="curve" smooth="yes"/>
      <point x="864" y="861"/>
      <point x="890" y="807"/>
      <point x="835" y="650" type="curve" smooth="yes"/>
      <point x="656" y="140" type="line" smooth="yes"/>
      <point x="615" y="22"/>
      <point x="626" y="-15"/>
      <point x="669" y="-15" type="curve" smooth="yes"/>
      <point x="704" y="-15"/>
      <point x="733" y="7"/>
      <point x="733" y="42" type="curve" smooth="yes"/>
      <point x="733" y="67"/>
      <point x="721" y="76"/>
      <point x="721" y="106" type="curve" smooth="yes"/>
      <point x="721" y="128"/>
      <point x="727" y="156"/>
      <point x="776" y="298" type="curve" smooth="yes"/>
      <point x="911" y="684"/>
      <point x="1157" y="861"/>
      <point x="1290" y="861" type="curve" smooth="yes"/>
      <point x="1355" y="861"/>
      <point x="1385" y="809"/>
      <point x="1329" y="650" type="curve" smooth="yes"/>
      <point x="1166" y="183" type="line" smooth="yes"/>
      <point x="1119" y="48"/>
      <point x="1149" y="-15"/>
      <point x="1222" y="-15" type="curve" smooth="yes"/>
      <point x="1283" y="-15"/>
      <point x="1350" y="24"/>
      <point x="1387" y="88" type="curve" smooth="yes"/>
      <point x="1394" y="101"/>
      <point x="1397" y="113"/>
      <point x="1388" y="117" type="curve" smooth="yes"/>
      <point x="1379" y="121"/>
      <point x="1369" y="115"/>
      <point x="1353" y="99" type="curve" smooth="yes"/>
      <point x="1309" y="54"/>
      <point x="1279" y="38"/>
      <point x="1253" y="38" type="curve" smooth="yes"/>
      <point x="1211" y="38"/>
      <point x="1196" y="79"/>
      <point x="1237" y="194" type="curve" smooth="yes"/>
      <point x="1395" y="642" type="line" smooth="yes"/>
      <point x="1456" y="815"/>
      <point x="1456" y="914"/>
      <point x="1327" y="914" type="curve" smooth="yes"/>
      <point x="1186" y="914"/>
      <point x="936" y="777"/>
      <point x="774" y="379" type="curve"/>
      <point x="763" y="314" type="line"/>
    </contour>
  </outline>
</glyph>
<glyph name="q" format="2">
  <advance width="941"/>
  <unicode hex="0071"/>
  <outline>
    <contour>
      <point x="736" y="462" type="line"/>
      <point x="495" y="-373" type="line" smooth="yes"/>
      <point x="478" y="-432"/>
      <point x="437" y="-458"/>
      <point x="328" y="-468" type="curve" smooth="yes"/>
      <point x="293" y="-471"/>
      <point x="284" y="-479"/>
      <point x="284" y="-486" type="curve" smooth="yes"/>
      <point x="284" y="-501"/>
      <point x="307" y="-507"/>
      <point x="331" y="-506" type="curve" smooth="yes"/>
      <point x="659" y="-493" type="line" smooth="yes"/>
      <point x="680" y="-492"/>
      <point x="689" y="-483"/>
      <point x="689" y="-472" type="curve" smooth="yes"/>
      <point x="689" y="-463"/>
      <point x="680" y="-456"/>
      <point x="661" y="-455" type="curve" smooth="yes"/>
      <point x="594" y="-446" type="line" smooth="yes"/>
      <point x="560" y="-442"/>
      <point x="550" y="-417"/>
      <point x="563" y="-373" type="curve" smooth="yes"/>
      <point x="879" y="743" type="line" smooth="yes"/>
      <point x="894" y="795"/>
      <point x="921" y="822"/>
      <point x="921" y="854" type="curve" smooth="yes"/>
      <point x="921" y="896"/>
      <point x="869" y="922"/>
      <point x="775" y="922" type="curve" smooth="yes"/>
      <point x="434" y="922"/>
      <point x="76" y="548"/>
      <point x="76" y="167" type="curve" smooth="yes"/>
      <point x="76" y="44"/>
      <point x="140" y="-15"/>
      <point x="238" y="-15" type="curve" smooth="yes"/>
      <point x="404" y="-15"/>
      <point x="614" y="157"/>
      <point x="752" y="450" type="curve"/>
    </contour>
    <contour>
      <point x="148" y="191" type="curve" smooth="yes"/>
      <point x="148" y="545"/>
      <point x="451" y="881"/>
      <point x="740" y="881" type="curve" smooth="yes"/>
      <point x="793" y="881"/>
      <point x="824" y="861"/>
      <point x="824" y="812" type="curve" smooth="yes"/>
      <point x="824" y="509"/>
      <point x="506" y="41"/>
      <point x="269" y="41" type="curve" smooth="yes"/>
      <point x="195" y="41"/>
      <point x="148" y="88"/>
    </contour>
  </outline>
</glyph>
<glyph name="s" format="2">
  <advance width="743"/>
  <unicode hex="0073"/>
  <outline>
    <contour>
      <point x="314" y="25" type="curve" smooth="yes"/>
      <point x="236" y="25"/>
      <point x="168" y="62"/>
      <point x="122" y="151" type="curve" smooth="yes"/>
      <point x="104" y="187"/>
      <point x="85" y="197"/>
      <point x="68" y="197" type="curve" smooth="yes"/>
      <point x="48" y="197"/>
      <point x="34" y="181"/>
      <point x="34" y="157" type="curve" smooth="yes"/>
      <point x="34" y="79"/>
      <point x="144" y="-15"/>
      <point x="285" y="-15" type="curve" smooth="yes"/>
      <point x="459" y="-15"/>
      <point x="564" y="78"/>
      <point x="564" y="203" type="curve" smooth="yes"/>
      <point x="564" y="280"/>
      <point x="534" y="333"/>
      <point x="402" y="456" type="curve" smooth="yes"/>
      <point x="281" y="575"/>
      <point x="255" y="631"/>
      <point x="255" y="699" type="curve" smooth="yes"/>
      <point x="255" y="803"/>
      <point x="343" y="887"/>
      <point x="478" y="887" type="curve" smooth="yes"/>
      <point x="553" y="887"/>
      <point x="601" y="849"/>
      <point x="629" y="780" type="curve" smooth="yes"/>
      <point x="644" y="746"/>
      <point x="662" y="734"/>
      <point x="680" y="734" type="curve" smooth="yes"/>
      <point x="704" y="734"/>
      <point x="719" y="746"/>
      <point x="719" y="772" type="curve" smooth="yes"/>
      <point x="719" y="844"/>
      <point x="630" y="922"/>
      <point x="499" y="922" type="curve" smooth="yes"/>
      <point x="308" y="922"/>
      <point x="188" y="807"/>
      <point x="188" y="670" type="curve" smooth="yes"/>
      <point x="188" y="582"/>
      <point x="223" y="533"/>
      <point x="353" y="408" type="curve" smooth="yes"/>
      <point x="471" y="291"/>
      <point x="497" y="235"/>
      <point x="497" y="174" type="curve" smooth="yes"/>
      <point x="497" y="87"/>
      <point x="422" y="25"/>
    </contour>
  </outline>
</glyph>
<glyph name="t" format="2">
  <advance width="642"/>
  <unicode hex="0074"/>
  <outline>
    <contour>
      <point x="302" y="849" type="line" smooth="yes"/>
      <point x="331" y="844"/>
      <point x="327" y="825"/>
      <point x="310" y="773" type="curve" smooth="yes"/>
      <point x="137" y="182" type="line" smooth="yes"/>
      <point x="98" y="54"/>
      <point x="118" y="-15"/>
      <point x="221" y="-15" type="curve" smooth="yes"/>
      <point x="339" y="-15"/>
      <point x="481" y="73"/>
      <point x="502" y="156" type="curve" smooth="yes"/>
      <point x="503" y="165"/>
      <point x="500" y="171"/>
      <point x="489" y="172" type="curve" smooth="yes"/>
      <point x="481" y="173"/>
      <point x="477" y="171"/>
      <point x="463" y="158" type="curve" smooth="yes"/>
      <point x="398" y="81"/>
      <point x="339" y="47"/>
      <point x="268" y="47" type="curve" smooth="yes"/>
      <point x="197" y="47"/>
      <point x="171" y="84"/>
      <point x="221" y="242" type="curve" smooth="yes"/>
      <point x="457" y="1012" type="line" smooth="yes"/>
      <point x="463" y="1031"/>
      <point x="469" y="1044"/>
      <point x="469" y="1054" type="curve" smooth="yes"/>
      <point x="469" y="1068"/>
      <point x="462" y="1073"/>
      <point x="452" y="1073" type="curve" smooth="yes"/>
      <point x="442" y="1073"/>
      <point x="434" y="1069"/>
      <point x="424" y="1055" type="curve" smooth="yes"/>
      <point x="343" y="922" type="line" smooth="yes"/>
      <point x="336" y="911"/>
      <point x="327" y="906"/>
      <point x="310" y="906" type="curve" smooth="yes"/>
      <point x="203" y="906" type="line" smooth="yes"/>
      <point x="188" y="906"/>
      <point x="176" y="897"/>
      <point x="176" y="888" type="curve" smooth="yes"/>
      <point x="176" y="877"/>
      <point x="185" y="870"/>
      <point x="200" y="868" type="curve" smooth="yes"/>
    </contour>
    <contour>
      <point x="343" y="866" type="line"/>
      <point x="640" y="866" type="line" smooth="yes"/>
      <point x="669" y="866"/>
      <point x="687" y="874"/>
      <point x="687" y="890" type="curve" smooth="yes"/>
      <point x="687" y="899"/>
      <point x="678" y="906"/>
      <point x="663" y="906" type="curve" smooth="yes"/>
      <point x="357" y="906" type="line"/>
    </contour>
  </outline>
</glyph>
<glyph name="w" format="2">
  <advance width="1473"/>
  <unicode hex="0077"/>
  <outline>
    <contour>
      <point x="935" y="918" type="curve" smooth="yes"/>
      <point x="913" y="922"/>
      <point x="895" y="896"/>
      <point x="862" y="772" type="curve" smooth="yes"/>
      <point x="709" y="195"/>
      <point x="755" y="-15"/>
      <point x="918" y="-15" type="curve" smooth="yes"/>
      <point x="1110" y="-15"/>
      <point x="1336" y="220"/>
      <point x="1400" y="614" type="curve" smooth="yes"/>
      <point x="1431" y="809"/>
      <point x="1398" y="913"/>
      <point x="1332" y="913" type="curve" smooth="yes"/>
      <point x="1301" y="913"/>
      <point x="1281" y="887"/>
      <point x="1281" y="860" type="curve" smooth="yes"/>
      <point x="1281" y="840"/>
      <point x="1291" y="814"/>
      <point x="1312" y="784" type="curve" smooth="yes"/>
      <point x="1357" y="720"/>
      <point x="1366" y="639"/>
      <point x="1338" y="522" type="curve" smooth="yes"/>
      <point x="1265" y="218"/>
      <point x="1079" y="35"/>
      <point x="943" y="35" type="curve" smooth="yes"/>
      <point x="824" y="35"/>
      <point x="777" y="177"/>
      <point x="890" y="674" type="curve"/>
      <point x="756" y="201"/>
      <point x="561" y="38"/>
      <point x="413" y="38" type="curve" smooth="yes"/>
      <point x="339" y="38"/>
      <point x="299" y="85"/>
      <point x="299" y="182" type="curve" smooth="yes"/>
      <point x="299" y="425"/>
      <point x="505" y="678"/>
      <point x="566" y="870" type="curve" smooth="yes"/>
      <point x="575" y="899"/>
      <point x="576" y="915"/>
      <point x="559" y="917" type="curve" smooth="yes"/>
      <point x="534" y="920"/>
      <point x="540" y="881"/>
      <point x="485" y="881" type="curve" smooth="yes"/>
      <point x="430" y="881"/>
      <point x="318" y="916"/>
      <point x="271" y="916" type="curve" smooth="yes"/>
      <point x="161" y="916"/>
      <point x="97" y="836"/>
      <point x="97" y="735" type="curve" smooth="yes"/>
      <point x="97" y="684"/>
      <point x="120" y="662"/>
      <point x="148" y="662" type="curve" smooth="yes"/>
      <point x="171" y="662"/>
      <point x="189" y="678"/>
      <point x="189" y="703" type="curve" smooth="yes"/>
      <point x="189" y="717"/>
      <point x="185" y="724"/>
      <point x="170" y="737" type="curve" smooth="yes"/>
      <point x="151" y="753"/>
      <point x="145" y="763"/>
      <point x="145" y="777" type="curve" smooth="yes"/>
      <point x="145" y="821"/>
      <point x="186" y="855"/>
      <point x="246" y="855" type="curve" smooth="yes"/>
      <point x="312" y="855"/>
      <point x="453" y="813"/>
      <point x="511" y="813" type="curve"/>
      <point x="515" y="850" type="line"/>
      <point x="466" y="679"/>
      <point x="234" y="434"/>
      <point x="224" y="173" type="curve" smooth="yes"/>
      <point x="219" y="47"/>
      <point x="276" y="-15"/>
      <point x="388" y="-15" type="curve"/>
      <point x="586" y="-15"/>
      <point x="806" y="174"/>
      <point x="932" y="756" type="curve" smooth="yes"/>
      <point x="958" y="874"/>
      <point x="958" y="913"/>
    </contour>
  </outline>
</glyph>
<glyph name="x" format="2">
  <advance width="1084"/>
  <unicode hex="0078"/>
  <outline>
    <contour>
      <point x="539" y="478" type="line"/>
      <point x="391.377302503057" y="100.52182720580333"/>
      <point x="258.0" y="32.0"/>
      <point x="170" y="32" type="curve" smooth="yes"/>
      <point x="121.0" y="32.0"/>
      <point x="101.0" y="52.95238095238095"/>
      <point x="101" y="87" type="curve" smooth="yes"/>
      <point x="101" y="122"/>
      <point x="108" y="154"/>
      <point x="108" y="180" type="curve" smooth="yes"/>
      <point x="108" y="207"/>
      <point x="93" y="226"/>
      <point x="73" y="226" type="curve" smooth="yes"/>
      <point x="43" y="226"/>
      <point x="21" y="189"/>
      <point x="21" y="128" type="curve" smooth="yes"/>
      <point x="18.999940155853906" y="37.99730701342571"/>
      <point x="67" y="-15.0"/>
      <point x="162" y="-15" type="curve" smooth="yes"/>
      <point x="277" y="-15.0"/>
      <point x="434.9227098990049" y="80.78425496988399"/>
      <point x="574" y="469" type="curve"/>
    </contour>
    <contour>
      <point x="565" y="400" type="line"/>
      <point x="718.7211625186461" y="793.1714349034603"/>
      <point x="842.0" y="867.0"/>
      <point x="934" y="867" type="curve" smooth="yes"/>
      <point x="976.0" y="867.0"/>
      <point x="1000.0" y="851.25"/>
      <point x="1000" y="825" type="curve" smooth="yes"/>
      <point x="1000.0" y="782.0"/>
      <point x="980.0" y="742.0"/>
      <point x="980" y="711" type="curve" smooth="yes"/>
      <point x="979" y="685"/>
      <point x="990" y="669"/>
      <point x="1009" y="669" type="curve" smooth="yes"/>
      <point x="1043" y="669"/>
      <point x="1072" y="716"/>
      <point x="1071" y="798" type="curve" smooth="yes"/>
      <point x="1071.0" y="866.0"/>
      <point x="1026" y="914.0"/>
      <point x="943" y="914" type="curve" smooth="yes"/>
      <point x="824" y="914.0"/>
      <point x="682.9566981924065" y="826.8814897897441"/>
      <point x="531" y="411" type="curve"/>
    </contour>
    <contour>
      <point x="585" y="188" type="curve" smooth="yes"/>
      <point x="597" y="711" type="line" smooth="yes"/>
      <point x="600" y="846"/>
      <point x="548" y="915.0"/>
      <point x="445" y="915" type="curve" smooth="yes"/>
      <point x="360" y="915.0"/>
      <point x="281" y="868"/>
      <point x="232" y="790" type="curve" smooth="yes"/>
      <point x="213" y="760"/>
      <point x="215" y="746"/>
      <point x="227" y="741" type="curve" smooth="yes"/>
      <point x="240" y="736"/>
      <point x="248" y="745"/>
      <point x="272" y="778" type="curve" smooth="yes"/>
      <point x="323.90857413183386" y="847.5379011954756"/>
      <point x="370.0" y="868.0"/>
      <point x="427" y="868" type="curve" smooth="yes"/>
      <point x="490.0" y="868.0"/>
      <point x="535.5890714939164" y="824.8403659431921"/>
      <point x="533" y="712" type="curve" smooth="yes"/>
      <point x="521" y="189" type="line" smooth="yes"/>
      <point x="518" y="54"/>
      <point x="570.0" y="-15.0"/>
      <point x="673" y="-15" type="curve" smooth="yes"/>
      <point x="758.0" y="-15.0"/>
      <point x="837" y="32"/>
      <point x="886" y="110" type="curve" smooth="yes"/>
      <point x="905" y="140"/>
      <point x="903" y="154"/>
      <point x="891" y="159" type="curve" smooth="yes"/>
      <point x="878" y="164"/>
      <point x="870" y="155"/>
      <point x="846" y="122" type="curve" smooth="yes"/>
      <point x="794.0914258681662" y="52.4620988045245"/>
      <point x="748.0" y="32.0"/>
      <point x="691" y="32" type="curve" smooth="yes"/>
      <point x="628.0" y="32.0"/>
      <point x="582.4109285060836" y="75.15963405680803"/>
    </contour>
  </outline>
</glyph>
<glyph name="y" format="2">
  <advance width="944"/>
  <unicode hex="0079"/>
  <anchor x="645" y="1003" name="center"/>
  <outline>
    <contour>
      <point x="608" y="472" type="curve" smooth="yes"/>
      <point x="381" y="-57" type="line"/>
      <point x="400" y="-96" type="line"/>
      <point x="402" y="173"/>
      <point x="406" y="667"/>
      <point x="400" y="775" type="curve" smooth="yes"/>
      <point x="395" y="872"/>
      <point x="359" y="917"/>
      <point x="297" y="917.0" type="curve" smooth="yes"/>
      <point x="240.24409448818898" y="917.0"/>
      <point x="188.7039196754374" y="883.0056075260105"/>
      <point x="161" y="819" type="curve" smooth="yes"/>
      <point x="154" y="803"/>
      <point x="154" y="790"/>
      <point x="164" y="786" type="curve" smooth="yes"/>
      <point x="174" y="783"/>
      <point x="181" y="787"/>
      <point x="196" y="809" type="curve" smooth="yes"/>
      <point x="224" y="851"/>
      <point x="248" y="864"/>
      <point x="274" y="864.0" type="curve" smooth="yes"/>
      <point x="309.0" y="864.0"/>
      <point x="326.79815140780084" y="828.7619278386721"/>
      <point x="329" y="755" type="curve" smooth="yes"/>
      <point x="336" y="586"/>
      <point x="334" y="117"/>
      <point x="331" y="-45" type="curve" smooth="yes"/>
      <point x="327" y="-250"/>
      <point x="188" y="-444"/>
      <point x="22" y="-444" type="curve" smooth="yes"/>
      <point x="-68" y="-444"/>
      <point x="-112" y="-387"/>
      <point x="-155" y="-387" type="curve" smooth="yes"/>
      <point x="-185" y="-387"/>
      <point x="-203" y="-404"/>
      <point x="-203" y="-431" type="curve" smooth="yes"/>
      <point x="-203" y="-468"/>
      <point x="-155" y="-500"/>
      <point x="-65" y="-500" type="curve" smooth="yes"/>
      <point x="137" y="-500"/>
      <point x="275" y="-413"/>
      <point x="393" y="-140" type="curve" smooth="yes"/>
      <point x="651" y="459" type="line" smooth="yes"/>
      <point x="788" y="778"/>
      <point x="868" y="835"/>
      <point x="971" y="844" type="curve" smooth="yes"/>
      <point x="1018" y="848"/>
      <point x="1036" y="865"/>
      <point x="1036" y="888" type="curve" smooth="yes"/>
      <point x="1036" y="910"/>
      <point x="1020" y="923"/>
      <point x="986" y="923" type="curve" smooth="yes"/>
      <point x="862.3457446808511" y="923.0"/>
      <point x="747.2998242276809" y="796.623819455697"/>
    </contour>
  </outline>
</glyph>
<glyph name="z" format="2">
  <advance width="855"/>
  <unicode hex="007A"/>
  <outline>
    <contour>
      <point x="146" y="102" type="curve"/>
      <point x="166" y="129" type="line"/>
      <point x="306.0" y="129.0"/>
      <point x="442" y="56"/>
      <point x="554" y="56.0" type="curve" smooth="yes"/>
      <point x="642.1225806451613" y="56.0"/>
      <point x="689" y="83"/>
      <point x="711" y="185" type="curve" smooth="yes"/>
      <point x="715" y="202"/>
      <point x="720.4444444444445" y="209.0"/>
      <point x="728" y="209.0" type="curve" smooth="yes"/>
      <point x="736.6666666666666" y="209.0"/>
      <point x="741.0" y="199.0"/>
      <point x="741" y="181.0" type="curve" smooth="yes"/>
      <point x="741" y="80.0"/>
      <point x="666" y="-15.0"/>
      <point x="544" y="-15.0" type="curve" smooth="yes"/>
      <point x="392.0" y="-15.0"/>
      <point x="251.0" y="87.0"/>
      <point x="180" y="87" type="curve" smooth="yes"/>
      <point x="133.0" y="87.0"/>
      <point x="112.0" y="-14.0"/>
      <point x="61" y="-14" type="curve" smooth="yes"/>
      <point x="34" y="-14"/>
      <point x="19" y="0"/>
      <point x="19" y="28" type="curve" smooth="yes"/>
      <point x="19" y="58.0"/>
      <point x="44.0" y="90.0"/>
      <point x="101" y="132" type="curve" smooth="yes"/>
      <point x="130.02429625710303" y="154.01843164331953"/>
      <point x="211.03082475649765" y="233.03262980980608"/>
      <point x="433" y="468" type="curve" smooth="yes"/>
      <point x="623.0090455039522" y="669.009569191023"/>
      <point x="726.9228436990868" y="779.8872330986653"/>
      <point x="753" y="818" type="curve"/>
      <point x="753" y="790" type="line"/>
      <point x="674.0" y="790.0"/>
      <point x="470.0" y="853.0"/>
      <point x="366" y="853.0" type="curve" smooth="yes"/>
      <point x="283.7622950819672" y="853.0"/>
      <point x="239.0" y="827.0"/>
      <point x="239" y="786" type="curve" smooth="yes"/>
      <point x="239.0" y="772.0"/>
      <point x="246.72079382753202" y="759.0259610421938"/>
      <point x="267" y="741" type="curve" smooth="yes"/>
      <point x="283" y="727"/>
      <point x="288" y="714"/>
      <point x="288" y="699" type="curve" smooth="yes"/>
      <point x="288" y="675"/>
      <point x="273" y="660"/>
      <point x="249" y="660" type="curve" smooth="yes"/>
      <point x="214" y="660"/>
      <point x="190" y="689"/>
      <point x="190.0" y="741" type="curve" smooth="yes"/>
      <point x="190.0" y="835"/>
      <point x="261" y="915"/>
      <point x="378" y="915.0" type="curve" smooth="yes"/>
      <point x="508.0" y="915.0"/>
      <point x="631.0" y="841.0"/>
      <point x="728" y="841" type="curve" smooth="yes"/>
      <point x="774.0" y="841.0"/>
      <point x="786.0" y="915.0"/>
      <point x="829" y="915" type="curve" smooth="yes"/>
      <point x="848.0270270270271" y="915.0"/>
      <point x="861.0" y="899.0"/>
      <point x="861" y="876" type="curve" smooth="yes"/>
      <point x="861.0" y="843.2289156626506"/>
      <point x="840.4098052652951" y="813.6121577457653"/>
      <point x="806" y="791" type="curve" smooth="yes"/>
      <point x="784.9754784496228" y="776.9836522997485"/>
      <point x="707.9634357500266" y="701.9608565290741"/>
      <point x="467" y="444" type="curve" smooth="yes"/>
      <point x="286.979732922752" y="251.97838178426883"/>
      <point x="205.98614762978042" y="169.98430064708447"/>
    </contour>
  </outline>
</glyph>
<glyph name="sterling" format="2">
  <advance width="1195"/>
  <unicode hex="00A3"/>
  <outline>
    <contour>
      <point x="289" y="204" type="line"/>
      <point x="437" y="273"/>
      <point x="516" y="366"/>
      <point x="544" y="461" type="curve" smooth="yes"/>
      <point x="598" y="660"/>
      <point x="466" y="881"/>
      <point x="517" y="1081" type="curve" smooth="yes"/>
      <point x="571" y="1276"/>
      <point x="721" y="1395"/>
      <point x="920" y="1395" type="curve" smooth="yes"/>
      <point x="1088" y="1395"/>
      <point x="1174" y="1317"/>
      <point x="1145" y="1182" type="curve" smooth="yes"/>
      <point x="1139" y="1112" type="line" smooth="yes"/>
      <point x="1129" y="1073"/>
      <point x="1144" y="1051"/>
      <point x="1172" y="1051" type="curve" smooth="yes"/>
      <point x="1204" y="1051"/>
      <point x="1231" y="1081"/>
      <point x="1245" y="1141" type="curve" smooth="yes"/>
      <point x="1282" y="1301"/>
      <point x="1194" y="1431"/>
      <point x="941" y="1431" type="curve" smooth="yes"/>
      <point x="704" y="1431"/>
      <point x="506" y="1292"/>
      <point x="446" y="1086" type="curve" smooth="yes"/>
      <point x="388" y="857"/>
      <point x="530" y="648"/>
      <point x="484" y="465" type="curve" smooth="yes"/>
      <point x="459" y="374"/>
      <point x="391" y="291"/>
      <point x="267" y="228" type="curve"/>
    </contour>
    <contour>
      <point x="14" y="51" type="curve" smooth="yes"/>
      <point x="1" y="3"/>
      <point x="18" y="-20"/>
      <point x="45" y="-20" type="curve" smooth="yes"/>
      <point x="79" y="-20"/>
      <point x="103" y="1"/>
      <point x="120" y="46" type="curve" smooth="yes"/>
      <point x="149" y="148"/>
      <point x="190" y="197"/>
      <point x="261" y="197" type="curve" smooth="yes"/>
      <point x="327" y="197"/>
      <point x="374" y="170"/>
      <point x="460" y="103" type="curve" smooth="yes"/>
      <point x="562" y="22"/>
      <point x="621" y="-19"/>
      <point x="723" y="-19" type="curve" smooth="yes"/>
      <point x="848" y="-19"/>
      <point x="939" y="47"/>
      <point x="1018" y="217" type="curve" smooth="yes"/>
      <point x="1027" y="235"/>
      <point x="1025" y="242"/>
      <point x="1014" y="244" type="curve" smooth="yes"/>
      <point x="1001" y="246"/>
      <point x="990" y="240"/>
      <point x="980" y="226" type="curve" smooth="yes"/>
      <point x="915" y="103"/>
      <point x="851" y="54"/>
      <point x="738" y="54" type="curve" smooth="yes"/>
      <point x="584" y="54"/>
      <point x="459" y="237"/>
      <point x="286" y="237" type="curve" smooth="yes"/>
      <point x="145" y="237"/>
      <point x="39" y="147"/>
    </contour>
    <contour>
      <point x="227" y="653" type="curve" smooth="yes"/>
      <point x="223" y="641"/>
      <point x="234" y="635"/>
      <point x="251" y="635" type="curve" smooth="yes"/>
      <point x="510" y="635" type="line"/>
      <point x="502" y="673" type="line"/>
      <point x="267" y="673" type="line" smooth="yes"/>
      <point x="249" y="673"/>
      <point x="231" y="664"/>
    </contour>
    <contour>
      <point x="534" y="634" type="line"/>
      <point x="958" y="634" type="line" smooth="yes"/>
      <point x="977" y="634"/>
      <point x="992" y="641"/>
      <point x="996" y="653" type="curve" smooth="yes"/>
      <point x="1000" y="664"/>
      <point x="991" y="673"/>
      <point x="972" y="673" type="curve" smooth="yes"/>
      <point x="527" y="673" type="line"/>
    </contour>
  </outline>
</glyph>
<glyph name="brokenbar" format="2">
  <advance width="649"/>
  <unicode hex="00A6"/>
  <outline>
    <contour>
      <point x="422" y="740" type="curve" smooth="yes"/>
      <point x="494" y="1010"/>
      <point x="581" y="1286"/>
      <point x="631" y="1477" type="curve" smooth="yes"/>
      <point x="644" y="1521"/>
      <point x="639" y="1546"/>
      <point x="613" y="1546" type="curve" smooth="yes"/>
      <point x="586" y="1546"/>
      <point x="563" y="1521"/>
      <point x="551" y="1477" type="curve" smooth="yes"/>
      <point x="501" y="1286"/>
      <point x="440" y="1011"/>
      <point x="368" y="740" type="curve" smooth="yes"/>
      <point x="361" y="716"/>
      <point x="368" y="705"/>
      <point x="384" y="705" type="curve" smooth="yes"/>
      <point x="404" y="705"/>
      <point x="415" y="714"/>
    </contour>
    <contour>
      <point x="307" y="531" type="curve" smooth="yes"/>
      <point x="236" y="261"/>
      <point x="149" y="-15"/>
      <point x="99" y="-206" type="curve" smooth="yes"/>
      <point x="86" y="-250"/>
      <point x="91" y="-276"/>
      <point x="118" y="-276" type="curve" smooth="yes"/>
      <point x="145" y="-276"/>
      <point x="166" y="-250"/>
      <point x="179" y="-206" type="curve" smooth="yes"/>
      <point x="230" y="-15"/>
      <point x="290" y="260"/>
      <point x="361" y="531" type="curve" smooth="yes"/>
      <point x="369" y="553"/>
      <point x="362" y="565"/>
      <point x="347" y="565" type="curve" smooth="yes"/>
      <point x="326" y="565"/>
      <point x="315" y="555"/>
    </contour>
  </outline>
</glyph>
<glyph name="Eth" format="2">
  <advance width="1482"/>
  <unicode hex="00D0"/>
  <outline>
    <contour>
      <point x="117" y="712" type="curve" smooth="yes"/>
      <point x="113" y="700"/>
      <point x="118" y="693"/>
      <point x="134" y="693" type="curve" smooth="yes"/>
      <point x="748" y="693" type="line" smooth="yes"/>
      <point x="766" y="693"/>
      <point x="775" y="700"/>
      <point x="779" y="712" type="curve" smooth="yes"/>
      <point x="783" y="724"/>
      <point x="779" y="731"/>
      <point x="762" y="731" type="curve" smooth="yes"/>
      <point x="147" y="731" type="line" smooth="yes"/>
      <point x="131" y="731"/>
      <point x="121" y="724"/>
    </contour>
    <component base="D" xOffset="8"/>
  </outline>
</glyph>
<glyph name="oslash" format="2">
  <advance width="939"/>
  <unicode hex="00F8"/>
  <outline>
    <contour>
      <point x="23" y="-66" type="curve" smooth="yes"/>
      <point x="35" y="-71"/>
      <point x="47" y="-69"/>
      <point x="57" y="-57" type="curve" smooth="yes"/>
      <point x="188" y="95" type="line"/>
      <point x="201" y="108" type="line"/>
      <point x="774" y="777" type="line"/>
      <point x="786" y="790" type="line"/>
      <point x="917" y="944" type="line" smooth="yes"/>
      <point x="928" y="956"/>
      <point x="931" y="969"/>
      <point x="921" y="976" type="curve" smooth="yes"/>
      <point x="912" y="980"/>
      <point x="897" y="976"/>
      <point x="884" y="962" type="curve" smooth="yes"/>
      <point x="759" y="816" type="line"/>
      <point x="743" y="798" type="line"/>
      <point x="172" y="134" type="line"/>
      <point x="160" y="120" type="line"/>
      <point x="26" y="-36" type="line" smooth="yes"/>
      <point x="15" y="-47"/>
      <point x="15" y="-61"/>
    </contour>
    <component base="o" xOffset="7"/>
  </outline>
</glyph>
<glyph name="Aogonek" format="2">
  <advance width="1202"/>
  <unicode hex="0104"/>
  <outline>
    <contour>
      <point x="995" y="33" type="line"/>
      <point x="809" y="-40"/>
      <point x="682" y="-169"/>
      <point x="682" y="-284" type="curve" smooth="yes"/>
      <point x="682" y="-359"/>
      <point x="734" y="-405"/>
      <point x="823" y="-405" type="curve" smooth="yes"/>
      <point x="907" y="-405"/>
      <point x="978" y="-353"/>
      <point x="996" y="-307" type="curve" smooth="yes"/>
      <point x="1001" y="-296"/>
      <point x="995" y="-291"/>
      <point x="988" y="-291" type="curve" smooth="yes"/>
      <point x="979" y="-290"/>
      <point x="974" y="-293"/>
      <point x="964" y="-303" type="curve" smooth="yes"/>
      <point x="933" y="-344"/>
      <point x="882" y="-367"/>
      <point x="836" y="-367" type="curve" smooth="yes"/>
      <point x="786" y="-367"/>
      <point x="751" y="-335"/>
      <point x="751" y="-277" type="curve" smooth="yes"/>
      <point x="751" y="-175"/>
      <point x="855" y="-61"/>
      <point x="1004" y="6" type="curve"/>
    </contour>
    <component base="A" xOffset="8"/>
  </outline>
</glyph>
<glyph name="Hbar" format="2">
  <advance width="1541"/>
  <unicode hex="0126"/>
  <outline>
    <contour>
      <point x="240" y="1016" type="curve" smooth="yes"/>
      <point x="235" y="1004"/>
      <point x="240" y="997"/>
      <point x="256" y="997" type="curve" smooth="yes"/>
      <point x="1528" y="997" type="line" smooth="yes"/>
      <point x="1545" y="997"/>
      <point x="1554" y="1004"/>
      <point x="1558" y="1016" type="curve" smooth="yes"/>
      <point x="1562" y="1028"/>
      <point x="1558" y="1036"/>
      <point x="1542" y="1036" type="curve" smooth="yes"/>
      <point x="271" y="1036" type="line" smooth="yes"/>
      <point x="254" y="1036"/>
      <point x="244" y="1028"/>
    </contour>
    <component base="H" xOffset="8"/>
  </outline>
</glyph>
<glyph name="hbar" format="2">
  <advance width="1036"/>
  <unicode hex="0127"/>
  <outline>
    <contour>
      <point x="568" y="1458" type="line" smooth="yes"/>
      <point x="572" y="1476"/>
      <point x="568" y="1487"/>
      <point x="555" y="1487" type="curve" smooth="yes"/>
      <point x="536" y="1487"/>
      <point x="504" y="1463"/>
      <point x="496" y="1436" type="curve" smooth="yes"/>
      <point x="117" y="125" type="line"/>
      <point x="80" y="4"/>
      <point x="82" y="-15"/>
      <point x="123" y="-15" type="curve" smooth="yes"/>
      <point x="163" y="-15"/>
      <point x="199" y="7"/>
      <point x="199" y="39" type="curve" smooth="yes"/>
      <point x="199" y="65"/>
      <point x="185" y="83"/>
      <point x="185" y="108" type="curve" smooth="yes"/>
      <point x="185" y="149"/>
      <point x="190" y="175"/>
      <point x="232" y="293" type="curve" smooth="yes"/>
      <point x="377" y="708"/>
      <point x="632" y="868"/>
      <point x="757" y="868" type="curve" smooth="yes"/>
      <point x="840" y="868"/>
      <point x="867" y="820"/>
      <point x="809" y="650" type="curve" smooth="yes"/>
      <point x="646" y="169" type="line" smooth="yes"/>
      <point x="598" y="33"/>
      <point x="625" y="-15"/>
      <point x="704" y="-15" type="curve" smooth="yes"/>
      <point x="770" y="-15"/>
      <point x="840" y="27"/>
      <point x="875" y="91" type="curve" smooth="yes"/>
      <point x="881" y="101"/>
      <point x="882" y="114"/>
      <point x="873" y="118" type="curve" smooth="yes"/>
      <point x="860" y="125"/>
      <point x="851" y="115"/>
      <point x="836" y="103" type="curve" smooth="yes"/>
      <point x="794" y="57"/>
      <point x="763" y="43"/>
      <point x="737" y="43" type="curve" smooth="yes"/>
      <point x="691" y="43"/>
      <point x="679" y="78"/>
      <point x="717" y="194" type="curve" smooth="yes"/>
      <point x="872" y="642" type="line" smooth="yes"/>
      <point x="934" y="818"/>
      <point x="938" y="921"/>
      <point x="808" y="921" type="curve" smooth="yes"/>
      <point x="616" y="921"/>
      <point x="398" y="747"/>
      <point x="253" y="433" type="curve"/>
      <point x="267" y="431" type="line"/>
    </contour>
    <contour>
      <point x="247" y="1163" type="curve" smooth="yes"/>
      <point x="243" y="1153"/>
      <point x="249" y="1145"/>
      <point x="264" y="1145" type="curve" smooth="yes"/>
      <point x="756" y="1145" type="line" smooth="yes"/>
      <point x="770" y="1145"/>
      <point x="781" y="1153"/>
      <point x="784" y="1164" type="curve" smooth="yes"/>
      <point x="788" y="1176"/>
      <point x="783" y="1184"/>
      <point x="767" y="1184" type="curve" smooth="yes"/>
      <point x="276" y="1184" type="line" smooth="yes"/>
      <point x="263" y="1184"/>
      <point x="251" y="1176"/>
    </contour>
  </outline>
</glyph>
<glyph name="Tbar" format="2">
  <advance width="1025"/>
  <unicode hex="0166"/>
  <outline>
    <contour>
      <point x="234" y="714" type="curve" smooth="yes"/>
      <point x="230" y="702"/>
      <point x="235" y="694"/>
      <point x="251" y="694" type="curve" smooth="yes"/>
      <point x="955" y="694" type="line" smooth="yes"/>
      <point x="972" y="694"/>
      <point x="982" y="702"/>
      <point x="986" y="714" type="curve" smooth="yes"/>
      <point x="990" y="726"/>
      <point x="986" y="733"/>
      <point x="969" y="733" type="curve" smooth="yes"/>
      <point x="265" y="733" type="line" smooth="yes"/>
      <point x="248" y="733"/>
      <point x="238" y="726"/>
    </contour>
    <component base="T" xOffset="8"/>
  </outline>
</glyph>
<glyph name="uogonek" format="2">
  <advance width="1067"/>
  <unicode hex="0173"/>
  <outline>
    <contour>
      <point x="787" y="27" type="line"/>
      <point x="596" y="-48"/>
      <point x="480" y="-179"/>
      <point x="480" y="-294" type="curve" smooth="yes"/>
      <point x="480" y="-370"/>
      <point x="533" y="-417"/>
      <point x="622" y="-417" type="curve" smooth="yes"/>
      <point x="708" y="-417"/>
      <point x="778" y="-364"/>
      <point x="797" y="-316" type="curve" smooth="yes"/>
      <point x="802" y="-305"/>
      <point x="796" y="-300"/>
      <point x="790" y="-300" type="curve" smooth="yes"/>
      <point x="782" y="-299"/>
      <point x="777" y="-302"/>
      <point x="768" y="-312" type="curve" smooth="yes"/>
      <point x="737" y="-354"/>
      <point x="683" y="-378"/>
      <point x="637" y="-378" type="curve" smooth="yes"/>
      <point x="584" y="-378"/>
      <point x="549" y="-345"/>
      <point x="549" y="-284" type="curve" smooth="yes"/>
      <point x="549" y="-187"/>
      <point x="642" y="-72"/>
      <point x="796" y="2" type="curve"/>
    </contour>
    <component base="u" xOffset="7"/>
  </outline>
</glyph>
<glyph name="Ohorn" format="2">
  <advance width="1512"/>
  <unicode hex="01A0"/>
  <outline>
    <contour>
      <point x="1682" y="1599" type="curve" smooth="yes"/>
      <point x="1690" y="1634"/>
      <point x="1673" y="1655"/>
      <point x="1645" y="1655" type="curve" smooth="yes"/>
      <point x="1614" y="1655"/>
      <point x="1589" y="1634"/>
      <point x="1582" y="1601" type="curve" smooth="yes"/>
      <point x="1572" y="1559" type="line" smooth="yes"/>
      <point x="1542" y="1426"/>
      <point x="1425" y="1360"/>
      <point x="1124" y="1406" type="curve" smooth="yes"/>
      <point x="1116" y="1407"/>
      <point x="1109" y="1404"/>
      <point x="1107" y="1397" type="curve" smooth="yes"/>
      <point x="1103" y="1384"/>
      <point x="1109" y="1381"/>
      <point x="1118" y="1380" type="curve" smooth="yes"/>
      <point x="1438" y="1312"/>
      <point x="1640" y="1430"/>
    </contour>
    <component base="O" xOffset="8"/>
  </outline>
</glyph>
<glyph name="ohorn" format="2">
  <advance width="939"/>
  <unicode hex="01A1"/>
  <outline>
    <contour>
      <point x="1051" y="1093" type="curve" smooth="yes"/>
      <point x="1064" y="1143"/>
      <point x="1049" y="1171"/>
      <point x="1018" y="1171" type="curve" smooth="yes"/>
      <point x="992" y="1171"/>
      <point x="967" y="1150"/>
      <point x="956" y="1111" type="curve" smooth="yes"/>
      <point x="942" y="1060" type="line" smooth="yes"/>
      <point x="908" y="937"/>
      <point x="782" y="879"/>
      <point x="633" y="915" type="curve" smooth="yes"/>
      <point x="626" y="917"/>
      <point x="619" y="912"/>
      <point x="618" y="906" type="curve" smooth="yes"/>
      <point x="612" y="892"/>
      <point x="618" y="890"/>
      <point x="627" y="888" type="curve" smooth="yes"/>
      <point x="820" y="847"/>
      <point x="1006" y="936"/>
    </contour>
    <component base="o" xOffset="7"/>
  </outline>
</glyph>
<glyph name="uhorn" format="2">
  <advance width="1067"/>
  <unicode hex="01B0"/>
  <outline>
    <contour>
      <point x="1221" y="1105" type="curve" smooth="yes"/>
      <point x="1233" y="1152"/>
      <point x="1219" y="1174"/>
      <point x="1191" y="1174" type="curve" smooth="yes"/>
      <point x="1159" y="1174"/>
      <point x="1134" y="1154"/>
      <point x="1124" y="1117" type="curve" smooth="yes"/>
      <point x="1110" y="1063" type="line" smooth="yes"/>
      <point x="1084" y="965"/>
      <point x="1029" y="929"/>
      <point x="922" y="921" type="curve" smooth="yes"/>
      <point x="910" y="920"/>
      <point x="903" y="916"/>
      <point x="903" y="908" type="curve" smooth="yes"/>
      <point x="903" y="900"/>
      <point x="907" y="895"/>
      <point x="915" y="895" type="curve" smooth="yes"/>
      <point x="1064" y="894"/>
      <point x="1189" y="986"/>
    </contour>
    <component base="u" xOffset="7"/>
  </outline>
</glyph>
<glyph name="dotlessj" format="2">
  <advance width="521"/>
  <unicode hex="0237"/>
  <outline>
    <contour>
      <point x="398" y="669" type="line" smooth="yes"/>
      <point x="454" y="846"/>
      <point x="446" y="922"/>
      <point x="347" y="922" type="curve" smooth="yes"/>
      <point x="269" y="922"/>
      <point x="188" y="863"/>
      <point x="168" y="806" type="curve" smooth="yes"/>
      <point x="167" y="795"/>
      <point x="173" y="787"/>
      <point x="182" y="787" type="curve" smooth="yes"/>
      <point x="192" y="786"/>
      <point x="199" y="789"/>
      <point x="209" y="799" type="curve" smooth="yes"/>
      <point x="247" y="847"/>
      <point x="284" y="866"/>
      <point x="314" y="866" type="curve" smooth="yes"/>
      <point x="372" y="866"/>
      <point x="373" y="795"/>
      <point x="325" y="641" type="curve" smooth="yes"/>
      <point x="81" y="-164" type="line" smooth="yes"/>
      <point x="68" y="-209"/>
      <point x="61" y="-245"/>
      <point x="57" y="-280" type="curve" smooth="yes"/>
      <point x="47" y="-384"/>
      <point x="-18" y="-441"/>
      <point x="-81" y="-441" type="curve" smooth="yes"/>
      <point x="-130" y="-441"/>
      <point x="-154" y="-416"/>
      <point x="-196" y="-416" type="curve" smooth="yes"/>
      <point x="-236" y="-416"/>
      <point x="-255" y="-439"/>
      <point x="-255" y="-463" type="curve" smooth="yes"/>
      <point x="-255" y="-492"/>
      <point x="-225" y="-515"/>
      <point x="-167" y="-515" type="curve" smooth="yes"/>
      <point x="-31" y="-515"/>
      <point x="65" y="-440"/>
      <point x="117" y="-272" type="curve" smooth="yes"/>
    </contour>
  </outline>
</glyph>
<glyph name="circumflexcmb" format="2">
  <advance width="569"/>
  <unicode hex="0302"/>
  <anchor x="301" y="1062" name="center"/>
  <outline>
    <contour>
      <point x="332" y="1210" type="line"/>
      <point x="89" y="1043" type="line" smooth="yes"/>
      <point x="78" y="1037"/>
      <point x="70" y="1034"/>
      <point x="64" y="1038" type="curve" smooth="yes"/>
      <point x="60" y="1042"/>
      <point x="62" y="1051"/>
      <point x="72" y="1060" type="curve" smooth="yes"/>
      <point x="309" y="1278" type="line" smooth="yes"/>
      <point x="326" y="1294"/>
      <point x="339" y="1302"/>
      <point x="354" y="1302" type="curve" smooth="yes"/>
      <point x="369" y="1302"/>
      <point x="377" y="1294"/>
      <point x="385" y="1278" type="curve" smooth="yes"/>
      <point x="512" y="1060" type="line" smooth="yes"/>
      <point x="517" y="1051"/>
      <point x="514" y="1042"/>
      <point x="507" y="1038" type="curve" smooth="yes"/>
      <point x="499" y="1034"/>
      <point x="492" y="1037"/>
      <point x="484" y="1043" type="curve" smooth="yes"/>
      <point x="326" y="1210" type="line"/>
    </contour>
  </outline>
</glyph>
<glyph name="tildecmb" format="2">
  <advance width="577"/>
  <unicode hex="0303"/>
  <outline>
    <contour>
      <point x="487" y="1118" type="curve" smooth="yes"/>
      <point x="559" y="1118"/>
      <point x="612" y="1168"/>
      <point x="633" y="1276" type="curve" smooth="yes"/>
      <point x="638" y="1295"/>
      <point x="633" y="1300"/>
      <point x="623" y="1300" type="curve" smooth="yes"/>
      <point x="609" y="1300"/>
      <point x="602" y="1291"/>
      <point x="598" y="1276" type="curve" smooth="yes"/>
      <point x="586" y="1215"/>
      <point x="558" y="1182"/>
      <point x="516" y="1182" type="curve" smooth="yes"/>
      <point x="436" y="1182"/>
      <point x="403" y="1297"/>
      <point x="298" y="1297" type="curve" smooth="yes"/>
      <point x="224" y="1297"/>
      <point x="171" y="1246"/>
      <point x="149" y="1140" type="curve" smooth="yes"/>
      <point x="145" y="1121"/>
      <point x="150" y="1116"/>
      <point x="162" y="1116" type="curve" smooth="yes"/>
      <point x="174" y="1116"/>
      <point x="181" y="1125"/>
      <point x="185" y="1140" type="curve" smooth="yes"/>
      <point x="198" y="1201"/>
      <point x="226" y="1233"/>
      <point x="269" y="1233" type="curve" smooth="yes"/>
      <point x="346" y="1233"/>
      <point x="382" y="1118"/>
    </contour>
  </outline>
</glyph>
<glyph name="macroncmb" format="2">
  <advance width="587"/>
  <unicode hex="0304"/>
  <outline>
    <contour>
      <point x="162" y="1208" type="curve" smooth="yes"/>
      <point x="158" y="1191"/>
      <point x="167" y="1182"/>
      <point x="185" y="1182" type="curve" smooth="yes"/>
      <point x="596" y="1182" type="line" smooth="yes"/>
      <point x="615" y="1182"/>
      <point x="627" y="1191"/>
      <point x="631" y="1208" type="curve" smooth="yes"/>
      <point x="636" y="1224"/>
      <point x="627" y="1233"/>
      <point x="608" y="1233" type="curve" smooth="yes"/>
      <point x="198" y="1233" type="line" smooth="yes"/>
      <point x="179" y="1233"/>
      <point x="166" y="1224"/>
    </contour>
  </outline>
</glyph>
<glyph name="brevecmb" format="2">
  <advance width="526"/>
  <unicode hex="0306"/>
  <outline>
    <contour>
      <point x="355" y="1148" type="curve" smooth="yes"/>
      <point x="266" y="1148"/>
      <point x="216" y="1195"/>
      <point x="208" y="1310" type="curve" smooth="yes"/>
      <point x="207" y="1322"/>
      <point x="203" y="1325"/>
      <point x="197" y="1325" type="curve" smooth="yes"/>
      <point x="190" y="1325"/>
      <point x="183" y="1320"/>
      <point x="180" y="1308" type="curve" smooth="yes"/>
      <point x="161" y="1173"/>
      <point x="218" y="1078"/>
      <point x="341" y="1078" type="curve" smooth="yes"/>
      <point x="462" y="1078"/>
      <point x="557" y="1173"/>
      <point x="590" y="1308" type="curve" smooth="yes"/>
      <point x="593" y="1320"/>
      <point x="587" y="1325"/>
      <point x="581" y="1325" type="curve" smooth="yes"/>
      <point x="575" y="1325"/>
      <point x="570" y="1322"/>
      <point x="563" y="1310" type="curve" smooth="yes"/>
      <point x="513" y="1195"/>
      <point x="444" y="1148"/>
    </contour>
  </outline>
</glyph>
<glyph name="dieresiscmb" format="2">
  <advance width="569"/>
  <unicode hex="0308"/>
  <outline>
    <contour>
      <point x="219" y="1158" type="curve" smooth="yes"/>
      <point x="256" y="1158"/>
      <point x="290" y="1191"/>
      <point x="298" y="1230" type="curve" smooth="yes"/>
      <point x="307" y="1270"/>
      <point x="286" y="1302"/>
      <point x="249" y="1302" type="curve" smooth="yes"/>
      <point x="211" y="1302"/>
      <point x="178" y="1270"/>
      <point x="169" y="1230" type="curve" smooth="yes"/>
      <point x="161" y="1191"/>
      <point x="180" y="1158"/>
    </contour>
    <contour>
      <point x="542" y="1158" type="curve" smooth="yes"/>
      <point x="580" y="1158"/>
      <point x="614" y="1191"/>
      <point x="621" y="1230" type="curve" smooth="yes"/>
      <point x="630" y="1270"/>
      <point x="611" y="1302"/>
      <point x="573" y="1302" type="curve" smooth="yes"/>
      <point x="535" y="1302"/>
      <point x="502" y="1270"/>
      <point x="492" y="1230" type="curve" smooth="yes"/>
      <point x="485" y="1191"/>
      <point x="504" y="1158"/>
    </contour>
  </outline>
</glyph>
<glyph name="hungarumlautcmb" format="2">
  <advance width="552"/>
  <unicode hex="030B"/>
  <outline>
    <contour>
      <point x="466" y="1264" type="curve" smooth="yes"/>
      <point x="345" y="1088" type="line" smooth="yes"/>
      <point x="338" y="1078"/>
      <point x="333" y="1069"/>
      <point x="339" y="1063" type="curve" smooth="yes"/>
      <point x="345" y="1059"/>
      <point x="354" y="1062"/>
      <point x="365" y="1070" type="curve" smooth="yes"/>
      <point x="527" y="1224" type="line" smooth="yes"/>
      <point x="552" y="1249"/>
      <point x="576" y="1270"/>
      <point x="584" y="1296" type="curve" smooth="yes"/>
      <point x="593" y="1321"/>
      <point x="581" y="1339"/>
      <point x="559" y="1341" type="curve" smooth="yes"/>
      <point x="523" y="1345"/>
      <point x="499" y="1314"/>
    </contour>
    <contour>
      <point x="375" y="1264" type="curve" smooth="yes"/>
      <point x="255" y="1088" type="line" smooth="yes"/>
      <point x="248" y="1078"/>
      <point x="243" y="1069"/>
      <point x="249" y="1063" type="curve" smooth="yes"/>
      <point x="255" y="1059"/>
      <point x="265" y="1062"/>
      <point x="274" y="1070" type="curve" smooth="yes"/>
      <point x="438" y="1224" type="line" smooth="yes"/>
      <point x="462" y="1249"/>
      <point x="487" y="1270"/>
      <point x="494" y="1296" type="curve" smooth="yes"/>
      <point x="503" y="1321"/>
      <point x="491" y="1339"/>
      <point x="470" y="1341" type="curve" smooth="yes"/>
      <point x="434" y="1345"/>
      <point x="409" y="1314"/>
    </contour>
  </outline>
</glyph>
<glyph name="invertedbrevecmb" format="2">
  <advance width="526"/>
  <unicode hex="0311"/>
  <outline>
    <contour>
      <point x="395" y="1259" type="curve" smooth="yes"/>
      <point x="484" y="1259"/>
      <point x="535" y="1213"/>
      <point x="542" y="1097" type="curve" smooth="yes"/>
      <point x="544" y="1086"/>
      <point x="548" y="1082"/>
      <point x="554" y="1082" type="curve" smooth="yes"/>
      <point x="560" y="1082"/>
      <point x="568" y="1088"/>
      <point x="570" y="1099" type="curve" smooth="yes"/>
      <point x="589" y="1235"/>
      <point x="533" y="1330"/>
      <point x="410" y="1330" type="curve" smooth="yes"/>
      <point x="287" y="1330"/>
      <point x="192" y="1235"/>
      <point x="161" y="1099" type="curve" smooth="yes"/>
      <point x="157" y="1088"/>
      <point x="163" y="1082"/>
      <point x="169" y="1082" type="curve" smooth="yes"/>
      <point x="175" y="1082"/>
      <point x="181" y="1086"/>
      <point x="186" y="1097" type="curve" smooth="yes"/>
      <point x="238" y="1213"/>
      <point x="307" y="1259"/>
    </contour>
  </outline>
</glyph>
<glyph name="commaturnedabovecmb" format="2">
  <advance width="269"/>
  <unicode hex="0312"/>
  <outline>
    <contour>
      <point x="245" y="1241" type="curve" smooth="yes"/>
      <point x="229" y="1241" type="line" smooth="yes"/>
      <point x="211" y="1241"/>
      <point x="208" y="1248"/>
      <point x="211" y="1264" type="curve" smooth="yes"/>
      <point x="221" y="1311"/>
      <point x="268" y="1369"/>
      <point x="331" y="1390" type="curve" smooth="yes"/>
      <point x="343" y="1393"/>
      <point x="350" y="1401"/>
      <point x="349" y="1409" type="curve" smooth="yes"/>
      <point x="347" y="1418"/>
      <point x="339" y="1419"/>
      <point x="324" y="1416" type="curve" smooth="yes"/>
      <point x="247" y="1393"/>
      <point x="182" y="1321"/>
      <point x="164" y="1229" type="curve" smooth="yes"/>
      <point x="146" y="1148"/>
      <point x="173" y="1115"/>
      <point x="216" y="1115" type="curve" smooth="yes"/>
      <point x="254" y="1115"/>
      <point x="288" y="1142"/>
      <point x="296" y="1180" type="curve" smooth="yes"/>
      <point x="302" y="1214"/>
      <point x="284" y="1241"/>
    </contour>
  </outline>
</glyph>
<glyph name="horncmb" format="2">
  <advance width="522"/>
  <unicode hex="031B"/>
  <outline>
    <contour>
      <point x="594" y="1127" type="curve" smooth="yes"/>
      <point x="602" y="1163"/>
      <point x="586" y="1185"/>
      <point x="557" y="1185" type="curve" smooth="yes"/>
      <point x="526" y="1185"/>
      <point x="502" y="1163"/>
      <point x="495" y="1129" type="curve" smooth="yes"/>
      <point x="484" y="1074" type="line" smooth="yes"/>
      <point x="462" y="956"/>
      <point x="336" y="889"/>
      <point x="169" y="928" type="curve" smooth="yes"/>
      <point x="160" y="931"/>
      <point x="150" y="924"/>
      <point x="148" y="916" type="curve" smooth="yes"/>
      <point x="146" y="908"/>
      <point x="149" y="904"/>
      <point x="162" y="902" type="curve" smooth="yes"/>
      <point x="384" y="853"/>
      <point x="561" y="964"/>
    </contour>
  </outline>
</glyph>
<glyph name="dieresisbelowcmb" format="2">
  <advance width="569"/>
  <unicode hex="0324"/>
  <outline>
    <contour>
      <point x="49" y="-318" type="curve" smooth="yes"/>
      <point x="86" y="-318"/>
      <point x="120" y="-285"/>
      <point x="129" y="-246" type="curve" smooth="yes"/>
      <point x="137" y="-206"/>
      <point x="117" y="-174"/>
      <point x="79" y="-174" type="curve" smooth="yes"/>
      <point x="41" y="-174"/>
      <point x="8" y="-206"/>
      <point x="0" y="-246" type="curve" smooth="yes"/>
      <point x="-8" y="-285"/>
      <point x="11" y="-318"/>
    </contour>
    <contour>
      <point x="373" y="-318" type="curve" smooth="yes"/>
      <point x="411" y="-318"/>
      <point x="444" y="-285"/>
      <point x="452" y="-246" type="curve" smooth="yes"/>
      <point x="460" y="-206"/>
      <point x="441" y="-174"/>
      <point x="403" y="-174" type="curve" smooth="yes"/>
      <point x="365" y="-174"/>
      <point x="332" y="-206"/>
      <point x="323" y="-246" type="curve" smooth="yes"/>
      <point x="315" y="-285"/>
      <point x="335" y="-318"/>
    </contour>
  </outline>
</glyph>
<glyph name="commaaccentbelowcmb" format="2">
  <advance width="269"/>
  <unicode hex="0326"/>
  <outline>
    <contour>
      <point x="175" y="-297" type="curve" smooth="yes"/>
      <point x="192" y="-297" type="line" smooth="yes"/>
      <point x="209" y="-297"/>
      <point x="212" y="-304"/>
      <point x="208" y="-320" type="curve" smooth="yes"/>
      <point x="195" y="-369"/>
      <point x="145" y="-420"/>
      <point x="80" y="-441" type="curve" smooth="yes"/>
      <point x="68" y="-444"/>
      <point x="61" y="-452"/>
      <point x="62" y="-460" type="curve" smooth="yes"/>
      <point x="64" y="-469"/>
      <point x="72" y="-471"/>
      <point x="86" y="-467" type="curve" smooth="yes"/>
      <point x="166" y="-444"/>
      <point x="233" y="-379"/>
      <point x="257" y="-285" type="curve" smooth="yes"/>
      <point x="279" y="-204"/>
      <point x="254" y="-171"/>
      <point x="211" y="-171" type="curve" smooth="yes"/>
      <point x="174" y="-171"/>
      <point x="138" y="-198"/>
      <point x="129" y="-236" type="curve" smooth="yes"/>
      <point x="119" y="-270"/>
      <point x="136" y="-297"/>
    </contour>
  </outline>
</glyph>
<glyph name="cedillacmb" format="2">
  <advance width="446"/>
  <unicode hex="0327"/>
  <outline>
    <contour>
      <point x="191" y="12" type="line"/>
      <point x="84" y="-134" type="line" smooth="yes"/>
      <point x="69" y="-153"/>
      <point x="70" y="-170"/>
      <point x="95" y="-170" type="curve" smooth="yes"/>
      <point x="134" y="-170" type="line" smooth="yes"/>
      <point x="202" y="-170"/>
      <point x="229" y="-215"/>
      <point x="217" y="-279" type="curve" smooth="yes"/>
      <point x="205" y="-350"/>
      <point x="163" y="-389"/>
      <point x="100" y="-389" type="curve" smooth="yes"/>
      <point x="45" y="-389"/>
      <point x="-4" y="-368"/>
      <point x="-3" y="-309" type="curve" smooth="yes"/>
      <point x="-2" y="-297"/>
      <point x="-8" y="-290"/>
      <point x="-21" y="-290" type="curve" smooth="yes"/>
      <point x="-32" y="-291"/>
      <point x="-42" y="-300"/>
      <point x="-46" y="-314" type="curve" smooth="yes"/>
      <point x="-56" y="-379"/>
      <point x="6" y="-426"/>
      <point x="91" y="-426" type="curve" smooth="yes"/>
      <point x="190" y="-426"/>
      <point x="273" y="-365"/>
      <point x="289" y="-276" type="curve" smooth="yes"/>
      <point x="308" y="-192"/>
      <point x="248" y="-134"/>
      <point x="145" y="-134" type="curve" smooth="yes"/>
      <point x="129" y="-134"/>
      <point x="116" y="-134"/>
      <point x="100" y="-134" type="curve"/>
      <point x="120" y="-144" type="line"/>
      <point x="235" y="12" type="line"/>
    </contour>
  </outline>
</glyph>
<glyph name="belowbrevecmb" format="2">
  <advance width="526"/>
  <unicode hex="032E"/>
  <outline>
    <contour>
      <point x="185" y="-337" type="curve"/>
      <point x="97" y="-337"/>
      <point x="46" y="-291"/>
      <point x="39" y="-175" type="curve" smooth="yes"/>
      <point x="37" y="-164"/>
      <point x="33" y="-160"/>
      <point x="27" y="-160" type="curve" smooth="yes"/>
      <point x="20" y="-160"/>
      <point x="13" y="-166"/>
      <point x="11" y="-177" type="curve" smooth="yes"/>
      <point x="-9" y="-313"/>
      <point x="48" y="-408"/>
      <point x="171" y="-408" type="curve" smooth="yes"/>
      <point x="293" y="-408"/>
      <point x="387" y="-313"/>
      <point x="420" y="-177" type="curve" smooth="yes"/>
      <point x="423" y="-166"/>
      <point x="418" y="-160"/>
      <point x="412" y="-160" type="curve" smooth="yes"/>
      <point x="406" y="-160"/>
      <point x="400" y="-164"/>
      <point x="394" y="-175" type="curve" smooth="yes"/>
      <point x="343" y="-291"/>
      <point x="274" y="-337"/>
    </contour>
  </outline>
</glyph>
<glyph name="daggerdbl" format="2">
  <advance width="1074"/>
  <unicode hex="2021"/>
  <outline>
    <contour>
      <point x="697" y="1087" type="curve" smooth="yes"/>
      <point x="497" y="1087"/>
      <point x="396" y="1110"/>
      <point x="283" y="1110" type="curve" smooth="yes"/>
      <point x="246" y="1110"/>
      <point x="219" y="1096"/>
      <point x="211" y="1066" type="curve" smooth="yes"/>
      <point x="203" y="1039"/>
      <point x="220" y="1025"/>
      <point x="259" y="1025" type="curve" smooth="yes"/>
      <point x="371" y="1025"/>
      <point x="486" y="1052"/>
      <point x="687" y="1052" type="curve" smooth="yes"/>
      <point x="895" y="1052"/>
      <point x="996" y="1025"/>
      <point x="1111" y="1025" type="curve" smooth="yes"/>
      <point x="1145" y="1025"/>
      <point x="1165" y="1039"/>
      <point x="1173" y="1066" type="curve" smooth="yes"/>
      <point x="1182" y="1096"/>
      <point x="1166" y="1110"/>
      <point x="1134" y="1110" type="curve" smooth="yes"/>
      <point x="1019" y="1110"/>
      <point x="906" y="1087"/>
    </contour>
    <contour>
      <point x="636" y="669" type="curve" smooth="yes"/>
      <point x="669" y="790"/>
      <point x="667" y="887"/>
      <point x="711" y="1068" type="curve" smooth="yes"/>
      <point x="768" y="1318"/>
      <point x="821" y="1415"/>
      <point x="853" y="1527" type="curve" smooth="yes"/>
      <point x="861" y="1557"/>
      <point x="854" y="1575"/>
      <point x="822" y="1575" type="curve" smooth="yes"/>
      <point x="793" y="1575"/>
      <point x="776" y="1559"/>
      <point x="766" y="1527" type="curve" smooth="yes"/>
      <point x="734" y="1416"/>
      <point x="730" y="1318"/>
      <point x="673" y="1068" type="curve" smooth="yes"/>
      <point x="628" y="886"/>
      <point x="577" y="787"/>
      <point x="545" y="672" type="curve" smooth="yes"/>
      <point x="513" y="555"/>
      <point x="511" y="456"/>
      <point x="467" y="276" type="curve" smooth="yes"/>
      <point x="409" y="25"/>
      <point x="357" y="-73"/>
      <point x="326" y="-183" type="curve" smooth="yes"/>
      <point x="317" y="-215"/>
      <point x="326" y="-233"/>
      <point x="356" y="-232" type="curve" smooth="yes"/>
      <point x="386" y="-233"/>
      <point x="404" y="-214"/>
      <point x="413" y="-183" type="curve" smooth="yes"/>
      <point x="444" y="-72"/>
      <point x="448" y="25"/>
      <point x="506" y="276" type="curve" smooth="yes"/>
      <point x="548" y="451"/>
      <point x="601" y="546"/>
    </contour>
    <contour>
      <point x="481" y="257" type="curve" smooth="yes"/>
      <point x="685" y="256"/>
      <point x="788" y="233"/>
      <point x="902" y="234" type="curve" smooth="yes"/>
      <point x="936" y="233"/>
      <point x="960" y="246"/>
      <point x="968" y="277" type="curve" smooth="yes"/>
      <point x="976" y="305"/>
      <point x="961" y="317"/>
      <point x="926" y="318" type="curve" smooth="yes"/>
      <point x="813" y="317"/>
      <point x="695" y="291"/>
      <point x="491" y="292" type="curve" smooth="yes"/>
      <point x="286" y="291"/>
      <point x="187" y="317"/>
      <point x="75" y="318" type="curve" smooth="yes"/>
      <point x="37" y="317"/>
      <point x="13" y="305"/>
      <point x="6" y="277" type="curve" smooth="yes"/>
      <point x="-2" y="246"/>
      <point x="16" y="233"/>
      <point x="51" y="234" type="curve" smooth="yes"/>
      <point x="165" y="233"/>
      <point x="275" y="256"/>
    </contour>
  </outline>
</glyph>
<glyph name="perthousand" format="2">
  <advance width="1766"/>
  <unicode hex="2030"/>
  <outline>
    <contour>
      <point x="613" y="1421" type="curve" smooth="yes"/>
      <point x="449" y="1421"/>
      <point x="325" y="1295"/>
      <point x="273" y="1101" type="curve" smooth="yes"/>
      <point x="214" y="883"/>
      <point x="272" y="766"/>
      <point x="423" y="766" type="curve" smooth="yes"/>
      <point x="565" y="766"/>
      <point x="698" y="886"/>
      <point x="757" y="1105" type="curve" smooth="yes"/>
      <point x="810" y="1302"/>
      <point x="749" y="1421"/>
    </contour>
    <contour>
      <point x="677" y="1090" type="curve" smooth="yes"/>
      <point x="620" y="878"/>
      <point x="528" y="804"/>
      <point x="439" y="804" type="curve" smooth="yes"/>
      <point x="335" y="804"/>
      <point x="292" y="883"/>
      <point x="351" y="1110" type="curve" smooth="yes"/>
      <point x="399" y="1293"/>
      <point x="483" y="1383"/>
      <point x="589" y="1383" type="curve" smooth="yes"/>
      <point x="691" y="1383"/>
      <point x="733" y="1304"/>
    </contour>
    <contour>
      <point x="961" y="634" type="curve" smooth="yes"/>
      <point x="798" y="634"/>
      <point x="674" y="508"/>
      <point x="621" y="314" type="curve" smooth="yes"/>
      <point x="562" y="96"/>
      <point x="620" y="-21"/>
      <point x="772" y="-21" type="curve" smooth="yes"/>
      <point x="913" y="-21"/>
      <point x="1046" y="100"/>
      <point x="1106" y="318" type="curve" smooth="yes"/>
      <point x="1158" y="515"/>
      <point x="1098" y="634"/>
    </contour>
    <contour>
      <point x="1025" y="303" type="curve" smooth="yes"/>
      <point x="969" y="91"/>
      <point x="877" y="17"/>
      <point x="788" y="17" type="curve" smooth="yes"/>
      <point x="684" y="17"/>
      <point x="640" y="97"/>
      <point x="700" y="323" type="curve" smooth="yes"/>
      <point x="747" y="506"/>
      <point x="831" y="597"/>
      <point x="937" y="597" type="curve" smooth="yes"/>
      <point x="1039" y="597"/>
      <point x="1082" y="518"/>
    </contour>
    <contour>
      <point x="1545" y="634" type="curve" smooth="yes"/>
      <point x="1383" y="634"/>
      <point x="1258" y="508"/>
      <point x="1206" y="314" type="curve" smooth="yes"/>
      <point x="1146" y="96"/>
      <point x="1205" y="-21"/>
      <point x="1356" y="-21" type="curve" smooth="yes"/>
      <point x="1497" y="-21"/>
      <point x="1630" y="100"/>
      <point x="1690" y="318" type="curve" smooth="yes"/>
      <point x="1742" y="515"/>
      <point x="1682" y="634"/>
    </contour>
    <contour>
      <point x="1609" y="303" type="curve" smooth="yes"/>
      <point x="1552" y="91"/>
      <point x="1461" y="17"/>
      <point x="1372" y="17" type="curve" smooth="yes"/>
      <point x="1267" y="17"/>
      <point x="1224" y="97"/>
      <point x="1284" y="323" type="curve" smooth="yes"/>
      <point x="1332" y="506"/>
      <point x="1415" y="597"/>
      <point x="1521" y="597" type="curve" smooth="yes"/>
      <point x="1623" y="597"/>
      <point x="1665" y="518"/>
    </contour>
    <component base="fraction" xOffset="97"/>
  </outline>
</glyph>
<glyph name="fraction" format="2">
  <advance width="1012"/>
  <unicode hex="2044"/>
  <outline>
    <contour>
      <point x="686" y="774" type="curve" smooth="yes"/>
      <point x="894" y="965"/>
      <point x="1127" y="1305"/>
      <point x="1189" y="1364" type="curve" smooth="yes"/>
      <point x="1213" y="1384"/>
      <point x="1221" y="1406"/>
      <point x="1204" y="1416" type="curve" smooth="yes"/>
      <point x="1184" y="1426"/>
      <point x="1159" y="1419"/>
      <point x="1131" y="1395" type="curve" smooth="yes"/>
      <point x="1061" y="1335"/>
      <point x="860" y="985"/>
      <point x="652" y="792" type="curve" smooth="yes"/>
      <point x="634" y="777"/>
      <point x="632" y="764"/>
      <point x="642" y="759" type="curve" smooth="yes"/>
      <point x="653" y="753"/>
      <point x="669" y="757"/>
    </contour>
    <contour>
      <point x="479" y="623" type="curve" smooth="yes"/>
      <point x="280" y="440"/>
      <point x="37" y="90"/>
      <point x="-27" y="30" type="curve" smooth="yes"/>
      <point x="-50" y="9"/>
      <point x="-59" y="-13"/>
      <point x="-40" y="-22" type="curve" smooth="yes"/>
      <point x="-21" y="-33"/>
      <point x="4" y="-25"/>
      <point x="31" y="-2" type="curve" smooth="yes"/>
      <point x="100" y="59"/>
      <point x="316" y="419"/>
      <point x="515" y="603" type="curve" smooth="yes"/>
      <point x="532" y="619"/>
      <point x="533" y="631"/>
      <point x="523" y="637" type="curve" smooth="yes"/>
      <point x="512" y="643"/>
      <point x="495" y="639"/>
    </contour>
  </outline>
</glyph>
<glyph name="kip" format="2">
  <advance width="1255"/>
  <unicode hex="20AD"/>
  <outline>
    <contour>
      <point x="298" y="115" type="curve" smooth="yes"/>
      <point x="309" y="161"/>
      <point x="568" y="1199"/>
      <point x="609" y="1298" type="curve" smooth="yes"/>
      <point x="620" y="1330"/>
      <point x="644" y="1345"/>
      <point x="692" y="1352" type="curve" smooth="yes"/>
      <point x="767" y="1366" type="line" smooth="yes"/>
      <point x="799" y="1370"/>
      <point x="809" y="1376"/>
      <point x="809" y="1388" type="curve" smooth="yes"/>
      <point x="809" y="1397"/>
      <point x="802" y="1400"/>
      <point x="781" y="1400" type="curve" smooth="yes"/>
      <point x="439" y="1400" type="line" smooth="yes"/>
      <point x="405" y="1400"/>
      <point x="387" y="1397"/>
      <point x="387" y="1386" type="curve" smooth="yes"/>
      <point x="387" y="1374"/>
      <point x="395" y="1368"/>
      <point x="421" y="1364" type="curve" smooth="yes"/>
      <point x="487" y="1352" type="line" smooth="yes"/>
      <point x="531" y="1345"/>
      <point x="537" y="1326"/>
      <point x="526" y="1285" type="curve" smooth="yes"/>
      <point x="504" y="1199"/>
      <point x="244" y="168"/>
      <point x="220" y="115" type="curve" smooth="yes"/>
      <point x="205" y="76"/>
      <point x="175" y="51"/>
      <point x="125" y="46" type="curve" smooth="yes"/>
      <point x="54" y="34" type="line" smooth="yes"/>
      <point x="27" y="32"/>
      <point x="17" y="24"/>
      <point x="19" y="15" type="curve" smooth="yes"/>
      <point x="19" y="4"/>
      <point x="25" y="0"/>
      <point x="48" y="0" type="curve" smooth="yes"/>
      <point x="396" y="0" type="line" smooth="yes"/>
      <point x="414" y="0"/>
      <point x="433" y="4"/>
      <point x="433" y="14" type="curve" smooth="yes"/>
      <point x="433" y="25"/>
      <point x="424" y="32"/>
      <point x="400" y="36" type="curve" smooth="yes"/>
      <point x="339" y="47" type="line" smooth="yes"/>
      <point x="295" y="52"/>
      <point x="288" y="72"/>
    </contour>
    <contour>
      <point x="864" y="105" type="line" smooth="yes"/>
      <point x="921" y="3"/>
      <point x="959" y="-19"/>
      <point x="1010" y="-19" type="curve" smooth="yes"/>
      <point x="1057" y="-19"/>
      <point x="1099" y="6"/>
      <point x="1119" y="45" type="curve" smooth="yes"/>
      <point x="1127" y="58"/>
      <point x="1123" y="73"/>
      <point x="1113" y="76" type="curve" smooth="yes"/>
      <point x="1102" y="80"/>
      <point x="1089" y="76"/>
      <point x="1082" y="65" type="curve" smooth="yes"/>
      <point x="1069" y="43"/>
      <point x="1053" y="33"/>
      <point x="1030" y="33" type="curve" smooth="yes"/>
      <point x="999" y="33"/>
      <point x="979" y="48"/>
      <point x="940" y="124" type="curve" smooth="yes"/>
      <point x="573" y="729" type="line"/>
      <point x="559" y="729" type="line"/>
      <point x="1222" y="1292" type="line" smooth="yes"/>
      <point x="1284" y="1340"/>
      <point x="1308" y="1354"/>
      <point x="1376" y="1364" type="curve" smooth="yes"/>
      <point x="1414" y="1369"/>
      <point x="1423" y="1373"/>
      <point x="1427" y="1384" type="curve" smooth="yes"/>
      <point x="1431" y="1395"/>
      <point x="1422" y="1400"/>
      <point x="1404" y="1400" type="curve" smooth="yes"/>
      <point x="1084" y="1400" type="line" smooth="yes"/>
      <point x="1065" y="1400"/>
      <point x="1053" y="1395"/>
      <point x="1050" y="1384" type="curve" smooth="yes"/>
      <point x="1046" y="1373"/>
      <point x="1055" y="1367"/>
      <point x="1076" y="1365" type="curve" smooth="yes"/>
      <point x="1160" y="1354" type="line" smooth="yes"/>
      <point x="1200" y="1349"/>
      <point x="1198" y="1330"/>
      <point x="1177" y="1312" type="curve" smooth="yes"/>
      <point x="496" y="732" type="line"/>
    </contour>
    <contour>
      <point x="217" y="733" type="curve" smooth="yes"/>
      <point x="214" y="721"/>
      <point x="225" y="714"/>
      <point x="242" y="714" type="curve" smooth="yes"/>
      <point x="529" y="714" type="line"/>
      <point x="520" y="752" type="line"/>
      <point x="256" y="752" type="line" smooth="yes"/>
      <point x="239" y="752"/>
      <point x="222" y="744"/>
    </contour>
    <contour>
      <point x="549" y="714" type="line"/>
      <point x="1148" y="714" type="line" smooth="yes"/>
      <point x="1166" y="714"/>
      <point x="1182" y="721"/>
      <point x="1185" y="733" type="curve" smooth="yes"/>
      <point x="1189" y="744"/>
      <point x="1180" y="752"/>
      <point x="1160" y="752" type="curve" smooth="yes"/>
      <point x="541" y="752" type="line"/>
    </contour>
  </outline>
</glyph>
<glyph name="ruble" format="2">
  <advance width="1085"/>
  <unicode hex="20BD"/>
  <outline>
    <contour>
      <point x="1119" y="1131" type="curve" smooth="yes"/>
      <point x="1220" y="1279"/>
      <point x="1130" y="1322"/>
      <point x="863" y="1228" type="curve" smooth="yes"/>
      <point x="853" y="1145"/>
      <point x="508" y="1098"/>
      <point x="463" y="1098" type="curve" smooth="yes"/>
      <point x="444" y="1098"/>
      <point x="388" y="1093"/>
      <point x="385" y="1083" type="curve"/>
      <point x="381" y="1074"/>
      <point x="390" y="1065"/>
      <point x="407" y="1062" type="curve"/>
      <point x="495" y="1056" type="line" smooth="yes"/>
      <point x="583" y="1050"/>
      <point x="648" y="1087"/>
      <point x="648" y="1138" type="curve" smooth="yes"/>
      <point x="659" y="1224"/>
      <point x="396" y="650"/>
      <point x="342" y="650" type="curve" smooth="yes"/>
      <point x="331" y="619"/>
      <point x="219" y="603"/>
      <point x="176" y="597" type="curve" smooth="yes"/>
      <point x="175" y="597"/>
      <point x="130" y="591"/>
      <point x="129" y="590" type="curve" smooth="yes"/>
      <point x="109" y="586"/>
      <point x="97" y="581"/>
      <point x="93" y="571" type="curve" smooth="yes"/>
      <point x="90" y="562"/>
      <point x="123" y="550"/>
      <point x="140" y="550" type="curve" smooth="yes"/>
      <point x="143" y="549"/>
      <point x="457" y="546"/>
      <point x="457" y="541" type="curve" smooth="yes"/>
      <point x="475" y="541"/>
      <point x="415" y="24"/>
      <point x="419" y="33" type="curve" smooth="yes"/>
      <point x="422" y="38"/>
      <point x="411" y="40"/>
      <point x="389" y="41" type="curve" smooth="yes"/>
      <point x="299" y="40" type="line" smooth="yes"/>
      <point x="256" y="44"/>
      <point x="238" y="61"/>
      <point x="249" y="92" type="curve" smooth="yes"/>
      <point x="249" y="90"/>
      <point x="509" y="805"/>
      <point x="510" y="805" type="curve" smooth="yes"/>
      <point x="709" y="805" type="line" smooth="yes"/>
      <point x="922" y="805"/>
      <point x="1008" y="708"/>
      <point x="960" y="577" type="curve" smooth="yes"/>
      <point x="917" y="456"/>
      <point x="780" y="389"/>
      <point x="611" y="390" type="curve" smooth="yes"/>
      <point x="380" y="396" type="line" smooth="yes"/>
      <point x="377" y="397"/>
      <point x="358" y="364"/>
      <point x="359" y="369" type="curve" smooth="yes"/>
      <point x="647" y="906" type="line"/>
      <point x="848" y="906"/>
      <point x="1069" y="993"/>
    </contour>
    <contour>
      <point x="86" y="351" type="curve" smooth="yes"/>
      <point x="82" y="339"/>
      <point x="88" y="331"/>
      <point x="105" y="331" type="curve" smooth="yes"/>
      <point x="601" y="331" type="line" smooth="yes"/>
      <point x="620" y="331"/>
      <point x="635" y="339"/>
      <point x="639" y="351" type="curve" smooth="yes"/>
      <point x="643" y="362"/>
      <point x="633" y="370"/>
      <point x="615" y="370" type="curve" smooth="yes"/>
      <point x="121" y="370" type="line" smooth="yes"/>
      <point x="105" y="370"/>
      <point x="89" y="361"/>
    </contour>
    <contour>
      <point x="158" y="623" type="curve" smooth="yes"/>
      <point x="154" y="611"/>
      <point x="162" y="603"/>
      <point x="178" y="603" type="curve" smooth="yes"/>
      <point x="363" y="603" type="line"/>
      <point x="380" y="642" type="line"/>
      <point x="194" y="642" type="line" smooth="yes"/>
      <point x="178" y="642"/>
      <point x="163" y="634"/>
    </contour>
  </outline>
</glyph>
<glyph name="lessequal" format="2">
  <advance width="1099"/>
  <unicode hex="2264"/>
  <outline>
    <contour>
      <point x="335" y="762" type="line"/>
      <point x="936" y="407" type="line" smooth="yes"/>
      <point x="955" y="400"/>
      <point x="961" y="388"/>
      <point x="958" y="378" type="curve" smooth="yes"/>
      <point x="955" y="370"/>
      <point x="946" y="364"/>
      <point x="931" y="364" type="curve" smooth="yes"/>
      <point x="919" y="364"/>
      <point x="908" y="371"/>
      <point x="893" y="377" type="curve" smooth="yes"/>
      <point x="319" y="711" type="line" smooth="yes"/>
      <point x="290" y="723"/>
      <point x="274" y="743"/>
      <point x="283" y="766" type="curve" smooth="yes"/>
      <point x="289" y="784"/>
      <point x="308" y="800"/>
      <point x="342" y="811" type="curve" smooth="yes"/>
      <point x="1087" y="1149" type="line" smooth="yes"/>
      <point x="1107" y="1155"/>
      <point x="1121" y="1161"/>
      <point x="1133" y="1161" type="curve" smooth="yes"/>
      <point x="1148" y="1161"/>
      <point x="1153" y="1154"/>
      <point x="1150" y="1145" type="curve" smooth="yes"/>
      <point x="1146" y="1134"/>
      <point x="1132" y="1119"/>
      <point x="1109" y="1112" type="curve" smooth="yes"/>
      <point x="333" y="757" type="line"/>
    </contour>
    <component base="minus" xOffset="-75" yOffset="-515"/>
  </outline>
</glyph>
<glyph name="bracketangleleft" format="2">
  <advance width="746"/>
  <unicode hex="27E8"/>
  <outline>
    <contour>
      <point x="274" y="629" type="line"/>
      <point x="951" y="1500" type="line" smooth="yes"/>
      <point x="971" y="1524"/>
      <point x="971" y="1541"/>
      <point x="956" y="1541" type="curve" smooth="yes"/>
      <point x="941" y="1541"/>
      <point x="921" y="1528"/>
      <point x="907" y="1512" type="curve" smooth="yes"/>
      <point x="221" y="680" type="line" smooth="yes"/>
      <point x="201" y="657"/>
      <point x="194" y="648"/>
      <point x="189" y="633" type="curve" smooth="yes"/>
      <point x="184" y="617"/>
      <point x="186" y="607"/>
      <point x="194" y="584" type="curve" smooth="yes"/>
      <point x="437" y="-246" type="line" smooth="yes"/>
      <point x="443" y="-262"/>
      <point x="453" y="-276"/>
      <point x="470" y="-276" type="curve" smooth="yes"/>
      <point x="485" y="-276"/>
      <point x="497" y="-259"/>
      <point x="490" y="-236" type="curve" smooth="yes"/>
    </contour>
  </outline>
</glyph>
<glyph name="acute.cap" format="2">
  <advance width="410"/>
  <outline>
    <contour>
      <point x="429" y="1209" type="curve" smooth="yes"/>
      <point x="236" y="1053" type="line" smooth="yes"/>
      <point x="228" y="1047"/>
      <point x="220" y="1039"/>
      <point x="224" y="1033" type="curve" smooth="yes"/>
      <point x="228" y="1028"/>
      <point x="237" y="1028"/>
      <point x="244" y="1032" type="curve" smooth="yes"/>
      <point x="472" y="1150" type="line" smooth="yes"/>
      <point x="508" y="1171"/>
      <point x="539" y="1188"/>
      <point x="552" y="1213" type="curve" smooth="yes"/>
      <point x="565" y="1233"/>
      <point x="559" y="1255"/>
      <point x="537" y="1263" type="curve" smooth="yes"/>
      <point x="510" y="1272"/>
      <point x="479" y="1248"/>
    </contour>
  </outline>
</glyph>
<glyph name="b.alt" format="2">
  <advance width="1010"/>
  <outline>
    <contour>
      <point x="716" y="868" type="curve" smooth="yes"/>
      <point x="810" y="868"/>
      <point x="879" y="810"/>
      <point x="879" y="658" type="curve" smooth="yes"/>
      <point x="879" y="337"/>
      <point x="611" y="25"/>
      <point x="403" y="25" type="curve"/>
      <point x="306" y="25"/>
      <point x="221" y="80"/>
      <point x="221" y="211" type="curve" smooth="yes"/>
      <point x="221" y="478"/>
      <point x="494" y="868"/>
    </contour>
    <contour>
      <point x="413" y="1224" type="curve" smooth="yes"/>
      <point x="84" y="57" type="line" smooth="yes"/>
      <point x="71" y="9"/>
      <point x="80" y="-4"/>
      <point x="97" y="-4" type="curve"/>
      <point x="107" y="-4"/>
      <point x="115" y="3"/>
      <point x="126" y="28" type="curve" smooth="yes"/>
      <point x="204" y="201" type="line"/>
      <point x="178" y="199" type="line"/>
      <point x="176" y="60"/>
      <point x="274" y="-15"/>
      <point x="402" y="-15" type="curve"/>
      <point x="649" y="-15"/>
      <point x="953" y="301"/>
      <point x="953" y="669" type="curve" smooth="yes"/>
      <point x="953" y="829"/>
      <point x="875" y="912"/>
      <point x="751" y="912" type="curve" smooth="yes"/>
      <point x="545" y="912"/>
      <point x="339" y="707"/>
      <point x="245" y="467" type="curve"/>
      <point x="265" y="467" type="line"/>
      <point x="485" y="1234" type="line" smooth="yes"/>
      <point x="524" y="1371"/>
      <point x="493" y="1434"/>
      <point x="420" y="1434" type="curve" smooth="yes"/>
      <point x="359" y="1434"/>
      <point x="292" y="1395"/>
      <point x="255" y="1331" type="curve" smooth="yes"/>
      <point x="248" y="1318"/>
      <point x="245" y="1306"/>
      <point x="254" y="1302" type="curve" smooth="yes"/>
      <point x="263" y="1298"/>
      <point x="273" y="1304"/>
      <point x="289" y="1320" type="curve" smooth="yes"/>
      <point x="333" y="1365"/>
      <point x="363" y="1381"/>
      <point x="389" y="1381" type="curve" smooth="yes"/>
      <point x="431" y="1381"/>
      <point x="446" y="1340"/>
    </contour>
  </outline>
</glyph>
<glyph name="breve.cap" format="2">
  <advance width="525"/>
  <outline>
    <contour>
      <point x="443" y="1108" type="curve" smooth="yes"/>
      <point x="355" y="1108"/>
      <point x="308" y="1149"/>
      <point x="302" y="1249" type="curve" smooth="yes"/>
      <point x="301" y="1261"/>
      <point x="298" y="1264"/>
      <point x="291" y="1264" type="curve" smooth="yes"/>
      <point x="285" y="1264"/>
      <point x="277" y="1259"/>
      <point x="275" y="1247" type="curve" smooth="yes"/>
      <point x="249" y="1125"/>
      <point x="306" y="1040"/>
      <point x="427" y="1040" type="curve" smooth="yes"/>
      <point x="548" y="1040"/>
      <point x="647" y="1125"/>
      <point x="682" y="1247" type="curve" smooth="yes"/>
      <point x="685" y="1259"/>
      <point x="680" y="1264"/>
      <point x="674" y="1264" type="curve" smooth="yes"/>
      <point x="667" y="1264"/>
      <point x="660" y="1261"/>
      <point x="654" y="1249" type="curve" smooth="yes"/>
      <point x="602" y="1149"/>
      <point x="531" y="1108"/>
    </contour>
  </outline>
</glyph>
<glyph name="breveacute.cap" format="2">
  <advance width="538"/>
  <outline>
    <contour>
      <point x="443" y="1108" type="curve" smooth="yes"/>
      <point x="355" y="1108"/>
      <point x="308" y="1149"/>
      <point x="302" y="1249" type="curve" smooth="yes"/>
      <point x="301" y="1261"/>
      <point x="298" y="1264"/>
      <point x="291" y="1264" type="curve" smooth="yes"/>
      <point x="285" y="1264"/>
      <point x="277" y="1259"/>
      <point x="275" y="1247" type="curve" smooth="yes"/>
      <point x="249" y="1125"/>
      <point x="306" y="1040"/>
      <point x="427" y="1040" type="curve" smooth="yes"/>
      <point x="548" y="1040"/>
      <point x="647" y="1125"/>
      <point x="682" y="1247" type="curve" smooth="yes"/>
      <point x="685" y="1259"/>
      <point x="680" y="1264"/>
      <point x="674" y="1264" type="curve" smooth="yes"/>
      <point x="667" y="1264"/>
      <point x="660" y="1261"/>
      <point x="654" y="1249" type="curve" smooth="yes"/>
      <point x="602" y="1149"/>
      <point x="531" y="1108"/>
    </contour>
    <contour>
      <point x="623" y="1437" type="curve" smooth="yes"/>
      <point x="458" y="1290" type="line" smooth="yes"/>
      <point x="449" y="1284"/>
      <point x="441" y="1275"/>
      <point x="446" y="1270" type="curve" smooth="yes"/>
      <point x="450" y="1263"/>
      <point x="459" y="1264"/>
      <point x="467" y="1269" type="curve" smooth="yes"/>
      <point x="668" y="1381" type="line" smooth="yes"/>
      <point x="705" y="1402"/>
      <point x="734" y="1420"/>
      <point x="747" y="1444" type="curve" smooth="yes"/>
      <point x="759" y="1465"/>
      <point x="753" y="1487"/>
      <point x="730" y="1495" type="curve" smooth="yes"/>
      <point x="701" y="1502"/>
      <point x="672" y="1478"/>
    </contour>
  </outline>
</glyph>
<glyph name="breveacute" format="2">
  <advance width="526"/>
  <anchor x="260" y="954" name="center"/>
  <outline>
    <contour>
      <point x="449" y="1467" type="curve" smooth="yes"/>
      <point x="292" y="1270" type="line" smooth="yes"/>
      <point x="286" y="1262"/>
      <point x="282" y="1253"/>
      <point x="288" y="1250" type="curve" smooth="yes"/>
      <point x="293" y="1245"/>
      <point x="303" y="1248"/>
      <point x="309" y="1253" type="curve" smooth="yes"/>
      <point x="510" y="1425" type="line" smooth="yes"/>
      <point x="543" y="1455"/>
      <point x="572" y="1480"/>
      <point x="578" y="1506" type="curve" smooth="yes"/>
      <point x="583" y="1528"/>
      <point x="572" y="1548"/>
      <point x="546" y="1548" type="curve" smooth="yes"/>
      <point x="513" y="1548"/>
      <point x="489" y="1518"/>
    </contour>
    <contour>
      <point x="282" y="1100" type="curve" smooth="yes"/>
      <point x="192" y="1100"/>
      <point x="145" y="1148"/>
      <point x="145" y="1262" type="curve" smooth="yes"/>
      <point x="145" y="1275"/>
      <point x="141" y="1278"/>
      <point x="135" y="1278" type="curve" smooth="yes"/>
      <point x="129" y="1278"/>
      <point x="121" y="1273"/>
      <point x="118" y="1260" type="curve" smooth="yes"/>
      <point x="89" y="1125"/>
      <point x="141" y="1030"/>
      <point x="264" y="1030" type="curve" smooth="yes"/>
      <point x="386" y="1030"/>
      <point x="486" y="1125"/>
      <point x="527" y="1260" type="curve" smooth="yes"/>
      <point x="531" y="1273"/>
      <point x="526" y="1278"/>
      <point x="520" y="1278" type="curve" smooth="yes"/>
      <point x="514" y="1278"/>
      <point x="508" y="1275"/>
      <point x="502" y="1262" type="curve" smooth="yes"/>
      <point x="443" y="1148"/>
      <point x="371" y="1100"/>
    </contour>
  </outline>
</glyph>
<glyph name="brevegrave.cap" format="2">
  <advance width="531"/>
  <outline>
    <contour>
      <point x="449" y="1108" type="curve" smooth="yes"/>
      <point x="363" y="1108"/>
      <point x="314" y="1149"/>
      <point x="308" y="1249" type="curve" smooth="yes"/>
      <point x="307" y="1261"/>
      <point x="304" y="1264"/>
      <point x="298" y="1264" type="curve" smooth="yes"/>
      <point x="291" y="1264"/>
      <point x="283" y="1259"/>
      <point x="281" y="1247" type="curve" smooth="yes"/>
      <point x="255" y="1125"/>
      <point x="313" y="1040"/>
      <point x="433" y="1040" type="curve" smooth="yes"/>
      <point x="554" y="1040"/>
      <point x="653" y="1125"/>
      <point x="689" y="1247" type="curve" smooth="yes"/>
      <point x="691" y="1259"/>
      <point x="686" y="1264"/>
      <point x="680" y="1264" type="curve" smooth="yes"/>
      <point x="674" y="1264"/>
      <point x="667" y="1261"/>
      <point x="660" y="1249" type="curve" smooth="yes"/>
      <point x="608" y="1149"/>
      <point x="537" y="1108"/>
    </contour>
    <contour>
      <point x="450" y="1432" type="line" smooth="yes"/>
      <point x="422" y="1473"/>
      <point x="403" y="1497"/>
      <point x="370" y="1490" type="curve" smooth="yes"/>
      <point x="342" y="1482"/>
      <point x="325" y="1460"/>
      <point x="327" y="1439" type="curve" smooth="yes"/>
      <point x="329" y="1415"/>
      <point x="350" y="1397"/>
      <point x="379" y="1376" type="curve" smooth="yes"/>
      <point x="531" y="1263" type="line" smooth="yes"/>
      <point x="537" y="1259"/>
      <point x="544" y="1258"/>
      <point x="552" y="1265" type="curve" smooth="yes"/>
      <point x="561" y="1270"/>
      <point x="558" y="1278"/>
      <point x="552" y="1284" type="curve" smooth="yes"/>
    </contour>
  </outline>
</glyph>
<glyph name="brevehook.cap" format="2">
  <advance width="525"/>
  <outline>
    <contour>
      <point x="443" y="1108" type="curve" smooth="yes"/>
      <point x="355" y="1108"/>
      <point x="308" y="1149"/>
      <point x="302" y="1249" type="curve" smooth="yes"/>
      <point x="301" y="1261"/>
      <point x="298" y="1264"/>
      <point x="291" y="1264" type="curve" smooth="yes"/>
      <point x="285" y="1264"/>
      <point x="277" y="1259"/>
      <point x="275" y="1247" type="curve" smooth="yes"/>
      <point x="249" y="1125"/>
      <point x="306" y="1040"/>
      <point x="427" y="1040" type="curve" smooth="yes"/>
      <point x="548" y="1040"/>
      <point x="647" y="1125"/>
      <point x="682" y="1247" type="curve" smooth="yes"/>
      <point x="685" y="1259"/>
      <point x="680" y="1264"/>
      <point x="674" y="1264" type="curve" smooth="yes"/>
      <point x="667" y="1264"/>
      <point x="660" y="1261"/>
      <point x="654" y="1249" type="curve" smooth="yes"/>
      <point x="602" y="1149"/>
      <point x="531" y="1108"/>
    </contour>
    <contour>
      <point x="440" y="1255" type="curve" smooth="yes"/>
      <point x="441" y="1263"/>
      <point x="450" y="1270"/>
      <point x="463" y="1272" type="curve" smooth="yes"/>
      <point x="551" y="1284"/>
      <point x="598" y="1333"/>
      <point x="612" y="1395" type="curve" smooth="yes"/>
      <point x="625" y="1456"/>
      <point x="591" y="1486"/>
      <point x="539" y="1486" type="curve" smooth="yes"/>
      <point x="477" y="1486"/>
      <point x="443" y="1453"/>
      <point x="434" y="1408" type="curve" smooth="yes"/>
      <point x="429" y="1384" type="line" smooth="yes"/>
      <point x="422" y="1356"/>
      <point x="401" y="1340"/>
      <point x="377" y="1340" type="curve" smooth="yes"/>
      <point x="351" y="1340"/>
      <point x="342" y="1360"/>
      <point x="347" y="1384" type="curve" smooth="yes"/>
      <point x="365" y="1456"/>
      <point x="456" y="1519"/>
      <point x="549" y="1519" type="curve" smooth="yes"/>
      <point x="639" y="1519"/>
      <point x="700" y="1468"/>
      <point x="679" y="1383" type="curve" smooth="yes"/>
      <point x="668" y="1321"/>
      <point x="603" y="1262"/>
      <point x="482" y="1244" type="curve" smooth="yes"/>
      <point x="443" y="1240"/>
      <point x="439" y="1246"/>
    </contour>
  </outline>
</glyph>
<glyph name="brevehook" format="2">
  <advance width="526"/>
  <anchor x="260" y="954" name="center"/>
  <outline>
    <contour>
      <point x="283" y="1266" type="curve" smooth="yes"/>
      <point x="283" y="1275"/>
      <point x="292" y="1283"/>
      <point x="304" y="1284" type="curve" smooth="yes"/>
      <point x="395" y="1297"/>
      <point x="446" y="1351"/>
      <point x="462" y="1419" type="curve" smooth="yes"/>
      <point x="480" y="1488"/>
      <point x="449" y="1521"/>
      <point x="394" y="1521" type="curve" smooth="yes"/>
      <point x="331" y="1521"/>
      <point x="296" y="1484"/>
      <point x="283" y="1432" type="curve" smooth="yes"/>
      <point x="277" y="1409" type="line" smooth="yes"/>
      <point x="269" y="1379"/>
      <point x="247" y="1362"/>
      <point x="222" y="1362" type="curve" smooth="yes"/>
      <point x="198" y="1362"/>
      <point x="188" y="1383"/>
      <point x="196" y="1409" type="curve" smooth="yes"/>
      <point x="215" y="1487"/>
      <point x="311" y="1556"/>
      <point x="405" y="1556" type="curve" smooth="yes"/>
      <point x="495" y="1556"/>
      <point x="552" y="1504"/>
      <point x="529" y="1419" type="curve" smooth="yes"/>
      <point x="512" y="1347"/>
      <point x="444" y="1274"/>
      <point x="320" y="1256" type="curve" smooth="yes"/>
      <point x="285" y="1251"/>
      <point x="281" y="1257"/>
    </contour>
    <contour>
      <point x="282" y="1100" type="curve" smooth="yes"/>
      <point x="192" y="1100"/>
      <point x="145" y="1148"/>
      <point x="145" y="1262" type="curve" smooth="yes"/>
      <point x="145" y="1275"/>
      <point x="141" y="1278"/>
      <point x="135" y="1278" type="curve" smooth="yes"/>
      <point x="129" y="1278"/>
      <point x="121" y="1273"/>
      <point x="118" y="1260" type="curve" smooth="yes"/>
      <point x="89" y="1125"/>
      <point x="141" y="1030"/>
      <point x="264" y="1030" type="curve" smooth="yes"/>
      <point x="386" y="1030"/>
      <point x="486" y="1125"/>
      <point x="527" y="1260" type="curve" smooth="yes"/>
      <point x="531" y="1273"/>
      <point x="526" y="1278"/>
      <point x="520" y="1278" type="curve" smooth="yes"/>
      <point x="514" y="1278"/>
      <point x="508" y="1275"/>
      <point x="502" y="1262" type="curve" smooth="yes"/>
      <point x="443" y="1148"/>
      <point x="371" y="1100"/>
    </contour>
  </outline>
</glyph>
<glyph name="brevetilde.cap" format="2">
  <advance width="538"/>
  <outline>
    <contour>
      <point x="453" y="1108" type="curve" smooth="yes"/>
      <point x="366" y="1108"/>
      <point x="317" y="1149"/>
      <point x="312" y="1249" type="curve" smooth="yes"/>
      <point x="310" y="1261"/>
      <point x="307" y="1264"/>
      <point x="301" y="1264" type="curve" smooth="yes"/>
      <point x="294" y="1264"/>
      <point x="286" y="1259"/>
      <point x="284" y="1247" type="curve" smooth="yes"/>
      <point x="259" y="1125"/>
      <point x="316" y="1040"/>
      <point x="437" y="1040" type="curve" smooth="yes"/>
      <point x="557" y="1040"/>
      <point x="656" y="1125"/>
      <point x="692" y="1247" type="curve" smooth="yes"/>
      <point x="694" y="1259"/>
      <point x="690" y="1264"/>
      <point x="683" y="1264" type="curve" smooth="yes"/>
      <point x="677" y="1264"/>
      <point x="670" y="1261"/>
      <point x="663" y="1249" type="curve" smooth="yes"/>
      <point x="611" y="1149"/>
      <point x="540" y="1108"/>
    </contour>
    <contour>
      <point x="610" y="1311" type="curve" smooth="yes"/>
      <point x="677" y="1311"/>
      <point x="728" y="1360"/>
      <point x="752" y="1464" type="curve" smooth="yes"/>
      <point x="757" y="1483"/>
      <point x="751" y="1488"/>
      <point x="739" y="1488" type="curve" smooth="yes"/>
      <point x="725" y="1488"/>
      <point x="716" y="1479"/>
      <point x="712" y="1464" type="curve" smooth="yes"/>
      <point x="698" y="1406"/>
      <point x="674" y="1374"/>
      <point x="636" y="1374" type="curve" smooth="yes"/>
      <point x="564" y="1374"/>
      <point x="537" y="1482"/>
      <point x="438" y="1482" type="curve" smooth="yes"/>
      <point x="372" y="1482"/>
      <point x="320" y="1432"/>
      <point x="296" y="1329" type="curve" smooth="yes"/>
      <point x="291" y="1311"/>
      <point x="298" y="1306"/>
      <point x="310" y="1306" type="curve" smooth="yes"/>
      <point x="323" y="1306"/>
      <point x="334" y="1315"/>
      <point x="337" y="1329" type="curve" smooth="yes"/>
      <point x="351" y="1389"/>
      <point x="376" y="1420"/>
      <point x="413" y="1420" type="curve" smooth="yes"/>
      <point x="483" y="1420"/>
      <point x="512" y="1311"/>
    </contour>
  </outline>
</glyph>
<glyph name="brevetilde" format="2">
  <advance width="538"/>
  <outline>
    <contour>
      <point x="374" y="1136" type="curve" smooth="yes"/>
      <point x="285" y="1136"/>
      <point x="236" y="1183"/>
      <point x="228" y="1297" type="curve" smooth="yes"/>
      <point x="226" y="1310"/>
      <point x="222" y="1313"/>
      <point x="216" y="1313" type="curve" smooth="yes"/>
      <point x="209" y="1313"/>
      <point x="202" y="1308"/>
      <point x="200" y="1295" type="curve" smooth="yes"/>
      <point x="179" y="1160"/>
      <point x="238" y="1065"/>
      <point x="359" y="1065" type="curve" smooth="yes"/>
      <point x="482" y="1065"/>
      <point x="577" y="1160"/>
      <point x="610" y="1295" type="curve" smooth="yes"/>
      <point x="612" y="1308"/>
      <point x="607" y="1313"/>
      <point x="601" y="1313" type="curve" smooth="yes"/>
      <point x="594" y="1313"/>
      <point x="589" y="1310"/>
      <point x="583" y="1297" type="curve" smooth="yes"/>
      <point x="533" y="1183"/>
      <point x="463" y="1136"/>
    </contour>
    <contour>
      <point x="527" y="1364" type="curve" smooth="yes"/>
      <point x="595" y="1364"/>
      <point x="646" y="1415"/>
      <point x="667" y="1522" type="curve" smooth="yes"/>
      <point x="672" y="1541"/>
      <point x="665" y="1547"/>
      <point x="655" y="1547" type="curve" smooth="yes"/>
      <point x="641" y="1547"/>
      <point x="632" y="1537"/>
      <point x="629" y="1522" type="curve" smooth="yes"/>
      <point x="617" y="1461"/>
      <point x="593" y="1428"/>
      <point x="555" y="1428" type="curve" smooth="yes"/>
      <point x="479" y="1428"/>
      <point x="449" y="1540"/>
      <point x="351" y="1540" type="curve" smooth="yes"/>
      <point x="283" y="1540"/>
      <point x="232" y="1489"/>
      <point x="210" y="1383" type="curve" smooth="yes"/>
      <point x="207" y="1364"/>
      <point x="213" y="1359"/>
      <point x="224" y="1359" type="curve" smooth="yes"/>
      <point x="237" y="1359"/>
      <point x="246" y="1368"/>
      <point x="249" y="1383" type="curve" smooth="yes"/>
      <point x="262" y="1445"/>
      <point x="286" y="1477"/>
      <point x="324" y="1477" type="curve" smooth="yes"/>
      <point x="398" y="1477"/>
      <point x="429" y="1364"/>
    </contour>
  </outline>
</glyph>
<glyph name="caron.cap" format="2">
  <advance width="566"/>
  <anchor x="297" y="1062" name="center"/>
  <outline>
    <contour>
      <point x="310" y="1116" type="line"/>
      <point x="305" y="1116" type="line"/>
      <point x="541" y="1262" type="line" smooth="yes"/>
      <point x="553" y="1269"/>
      <point x="561" y="1272"/>
      <point x="568" y="1267" type="curve" smooth="yes"/>
      <point x="573" y="1263"/>
      <point x="571" y="1254"/>
      <point x="559" y="1245" type="curve" smooth="yes"/>
      <point x="327" y="1050" type="line" smooth="yes"/>
      <point x="310" y="1035"/>
      <point x="299" y="1027"/>
      <point x="285" y="1027" type="curve" smooth="yes"/>
      <point x="270" y="1027"/>
      <point x="262" y="1035"/>
      <point x="251" y="1050" type="curve" smooth="yes"/>
      <point x="123" y="1245" type="line" smooth="yes"/>
      <point x="117" y="1254"/>
      <point x="121" y="1263"/>
      <point x="128" y="1267" type="curve" smooth="yes"/>
      <point x="137" y="1272"/>
      <point x="144" y="1269"/>
      <point x="151" y="1262" type="curve" smooth="yes"/>
    </contour>
  </outline>
</glyph>
<glyph name="circumflexacute" format="2">
  <advance width="708"/>
  <outline>
    <contour>
      <point x="456" y="1235" type="line"/>
      <point x="219" y="1068" type="line" smooth="yes"/>
      <point x="208" y="1061"/>
      <point x="201" y="1058"/>
      <point x="194" y="1063" type="curve" smooth="yes"/>
      <point x="189" y="1066"/>
      <point x="191" y="1076"/>
      <point x="201" y="1085" type="curve" smooth="yes"/>
      <point x="422" y="1302" type="line" smooth="yes"/>
      <point x="439" y="1319"/>
      <point x="451" y="1327"/>
      <point x="467" y="1327" type="curve" smooth="yes"/>
      <point x="481" y="1327"/>
      <point x="489" y="1319"/>
      <point x="500" y="1302" type="curve" smooth="yes"/>
      <point x="642" y="1085" type="line" smooth="yes"/>
      <point x="647" y="1076"/>
      <point x="644" y="1066"/>
      <point x="638" y="1063" type="curve" smooth="yes"/>
      <point x="629" y="1058"/>
      <point x="622" y="1060"/>
      <point x="615" y="1068" type="curve" smooth="yes"/>
      <point x="451" y="1235" type="line"/>
    </contour>
    <contour>
      <point x="782" y="1453" type="curve" smooth="yes"/>
      <point x="638" y="1256" type="line" smooth="yes"/>
      <point x="631" y="1248"/>
      <point x="626" y="1240"/>
      <point x="633" y="1235" type="curve" smooth="yes"/>
      <point x="639" y="1230"/>
      <point x="648" y="1233"/>
      <point x="654" y="1240" type="curve" smooth="yes"/>
      <point x="845" y="1411" type="line" smooth="yes"/>
      <point x="877" y="1441"/>
      <point x="903" y="1465"/>
      <point x="909" y="1492" type="curve" smooth="yes"/>
      <point x="912" y="1514"/>
      <point x="899" y="1533"/>
      <point x="874" y="1533" type="curve" smooth="yes"/>
      <point x="841" y="1533"/>
      <point x="818" y="1503"/>
    </contour>
  </outline>
</glyph>
<glyph name="circumflexgrave" format="2">
  <advance width="643"/>
  <outline>
    <contour>
      <point x="442" y="1235" type="line"/>
      <point x="205" y="1068" type="line" smooth="yes"/>
      <point x="194" y="1061"/>
      <point x="186" y="1058"/>
      <point x="179" y="1063" type="curve" smooth="yes"/>
      <point x="175" y="1066"/>
      <point x="177" y="1076"/>
      <point x="186" y="1085" type="curve" smooth="yes"/>
      <point x="408" y="1302" type="line" smooth="yes"/>
      <point x="424" y="1319"/>
      <point x="437" y="1327"/>
      <point x="452" y="1327" type="curve" smooth="yes"/>
      <point x="467" y="1327"/>
      <point x="475" y="1319"/>
      <point x="485" y="1302" type="curve" smooth="yes"/>
      <point x="627" y="1085" type="line" smooth="yes"/>
      <point x="632" y="1076"/>
      <point x="629" y="1066"/>
      <point x="623" y="1063" type="curve" smooth="yes"/>
      <point x="615" y="1058"/>
      <point x="608" y="1060"/>
      <point x="601" y="1068" type="curve" smooth="yes"/>
      <point x="437" y="1235" type="line"/>
    </contour>
    <contour>
      <point x="672" y="1461" type="line" smooth="yes"/>
      <point x="655" y="1512"/>
      <point x="645" y="1541"/>
      <point x="612" y="1541" type="curve" smooth="yes"/>
      <point x="586" y="1541"/>
      <point x="565" y="1522"/>
      <point x="560" y="1500" type="curve" smooth="yes"/>
      <point x="555" y="1473"/>
      <point x="572" y="1449"/>
      <point x="592" y="1419" type="curve" smooth="yes"/>
      <point x="712" y="1248" type="line" smooth="yes"/>
      <point x="715" y="1242"/>
      <point x="723" y="1239"/>
      <point x="730" y="1244" type="curve" smooth="yes"/>
      <point x="740" y="1248"/>
      <point x="740" y="1256"/>
      <point x="738" y="1264" type="curve" smooth="yes"/>
    </contour>
  </outline>
</glyph>
<glyph name="circumflexhook.cap" format="2">
  <advance width="753"/>
  <outline>
    <contour>
      <point x="493" y="1189" type="line"/>
      <point x="259" y="1042" type="line" smooth="yes"/>
      <point x="246" y="1035"/>
      <point x="235" y="1032"/>
      <point x="228" y="1038" type="curve" smooth="yes"/>
      <point x="223" y="1041"/>
      <point x="225" y="1050"/>
      <point x="236" y="1059" type="curve" smooth="yes"/>
      <point x="461" y="1254" type="line" smooth="yes"/>
      <point x="479" y="1269"/>
      <point x="490" y="1278"/>
      <point x="505" y="1278" type="curve" smooth="yes"/>
      <point x="519" y="1278"/>
      <point x="527" y="1269"/>
      <point x="537" y="1254" type="curve" smooth="yes"/>
      <point x="669" y="1058" type="line" smooth="yes"/>
      <point x="676" y="1048"/>
      <point x="674" y="1040"/>
      <point x="668" y="1038" type="curve" smooth="yes"/>
      <point x="660" y="1033"/>
      <point x="651" y="1035"/>
      <point x="643" y="1042" type="curve" smooth="yes"/>
      <point x="489" y="1189" type="line"/>
    </contour>
    <contour>
      <point x="708" y="1208" type="curve" smooth="yes"/>
      <point x="709" y="1216"/>
      <point x="718" y="1223"/>
      <point x="730" y="1225" type="curve" smooth="yes"/>
      <point x="821" y="1243"/>
      <point x="867" y="1288"/>
      <point x="881" y="1352" type="curve" smooth="yes"/>
      <point x="895" y="1417"/>
      <point x="861" y="1448"/>
      <point x="810" y="1448" type="curve" smooth="yes"/>
      <point x="746" y="1448"/>
      <point x="714" y="1416"/>
      <point x="705" y="1370" type="curve" smooth="yes"/>
      <point x="700" y="1347" type="line" smooth="yes"/>
      <point x="693" y="1318"/>
      <point x="672" y="1302"/>
      <point x="647" y="1302" type="curve" smooth="yes"/>
      <point x="622" y="1302"/>
      <point x="612" y="1322"/>
      <point x="618" y="1347" type="curve" smooth="yes"/>
      <point x="635" y="1419"/>
      <point x="727" y="1482"/>
      <point x="820" y="1482" type="curve" smooth="yes"/>
      <point x="910" y="1482"/>
      <point x="968" y="1433"/>
      <point x="948" y="1352" type="curve" smooth="yes"/>
      <point x="934" y="1285"/>
      <point x="873" y="1221"/>
      <point x="748" y="1197" type="curve" smooth="yes"/>
      <point x="711" y="1190"/>
      <point x="706" y="1199"/>
    </contour>
  </outline>
</glyph>
<glyph name="circumflextilde.cap" format="2">
  <advance width="583"/>
  <outline>
    <contour>
      <point x="492" y="1163" type="line"/>
      <point x="257" y="1042" type="line" smooth="yes"/>
      <point x="244" y="1036"/>
      <point x="235" y="1033"/>
      <point x="228" y="1038" type="curve" smooth="yes"/>
      <point x="223" y="1041"/>
      <point x="224" y="1051"/>
      <point x="236" y="1059" type="curve" smooth="yes"/>
      <point x="459" y="1229" type="line" smooth="yes"/>
      <point x="479" y="1243"/>
      <point x="490" y="1253"/>
      <point x="504" y="1253" type="curve" smooth="yes"/>
      <point x="518" y="1253"/>
      <point x="523" y="1243"/>
      <point x="535" y="1229" type="curve" smooth="yes"/>
      <point x="682" y="1060" type="line" smooth="yes"/>
      <point x="692" y="1050"/>
      <point x="691" y="1041"/>
      <point x="684" y="1038" type="curve" smooth="yes"/>
      <point x="678" y="1033"/>
      <point x="669" y="1036"/>
      <point x="659" y="1042" type="curve" smooth="yes"/>
      <point x="487" y="1163" type="line"/>
    </contour>
    <contour>
      <point x="622" y="1294" type="curve" smooth="yes"/>
      <point x="690" y="1294"/>
      <point x="741" y="1342"/>
      <point x="766" y="1447" type="curve" smooth="yes"/>
      <point x="770" y="1465"/>
      <point x="763" y="1470"/>
      <point x="752" y="1470" type="curve" smooth="yes"/>
      <point x="737" y="1470"/>
      <point x="728" y="1462"/>
      <point x="724" y="1447" type="curve" smooth="yes"/>
      <point x="710" y="1388"/>
      <point x="687" y="1356"/>
      <point x="649" y="1356" type="curve" smooth="yes"/>
      <point x="576" y="1356"/>
      <point x="550" y="1465"/>
      <point x="451" y="1465" type="curve" smooth="yes"/>
      <point x="384" y="1465"/>
      <point x="332" y="1415"/>
      <point x="309" y="1311" type="curve" smooth="yes"/>
      <point x="304" y="1294"/>
      <point x="311" y="1288"/>
      <point x="322" y="1288" type="curve" smooth="yes"/>
      <point x="335" y="1288"/>
      <point x="345" y="1297"/>
      <point x="349" y="1311" type="curve" smooth="yes"/>
      <point x="365" y="1372"/>
      <point x="388" y="1402"/>
      <point x="425" y="1402" type="curve" smooth="yes"/>
      <point x="496" y="1402"/>
      <point x="524" y="1294"/>
    </contour>
  </outline>
</glyph>
<glyph name="grave.cap" format="2">
  <advance width="410"/>
  <outline>
    <contour>
      <point x="389" y="1209" type="line" smooth="yes"/>
      <point x="356" y="1248"/>
      <point x="337" y="1272"/>
      <point x="303" y="1263" type="curve" smooth="yes"/>
      <point x="278" y="1255"/>
      <point x="261" y="1233"/>
      <point x="264" y="1213" type="curve" smooth="yes"/>
      <point x="266" y="1188"/>
      <point x="290" y="1171"/>
      <point x="319" y="1150" type="curve" smooth="yes"/>
      <point x="491" y="1032" type="line" smooth="yes"/>
      <point x="497" y="1028"/>
      <point x="505" y="1028"/>
      <point x="512" y="1033" type="curve" smooth="yes"/>
      <point x="520" y="1039"/>
      <point x="516" y="1047"/>
      <point x="512" y="1053" type="curve" smooth="yes"/>
    </contour>
  </outline>
</glyph>
<glyph name="gravedouble.cap" format="2">
  <advance width="552"/>
  <outline>
    <contour>
      <point x="383" y="1220" type="line" smooth="yes"/>
      <point x="368" y="1266"/>
      <point x="357" y="1296"/>
      <point x="319" y="1290" type="curve" smooth="yes"/>
      <point x="295" y="1286"/>
      <point x="274" y="1268"/>
      <point x="272" y="1243" type="curve" smooth="yes"/>
      <point x="272" y="1218"/>
      <point x="288" y="1198"/>
      <point x="304" y="1176" type="curve" smooth="yes"/>
      <point x="405" y="1037" type="line" smooth="yes"/>
      <point x="412" y="1030"/>
      <point x="420" y="1027"/>
      <point x="429" y="1032" type="curve" smooth="yes"/>
      <point x="437" y="1037"/>
      <point x="438" y="1046"/>
      <point x="436" y="1055" type="curve" smooth="yes"/>
    </contour>
    <contour>
      <point x="607" y="1220" type="line" smooth="yes"/>
      <point x="592" y="1266"/>
      <point x="582" y="1296"/>
      <point x="543" y="1290" type="curve" smooth="yes"/>
      <point x="518" y="1286"/>
      <point x="498" y="1268"/>
      <point x="496" y="1243" type="curve" smooth="yes"/>
      <point x="495" y="1218"/>
      <point x="511" y="1198"/>
      <point x="527" y="1176" type="curve" smooth="yes"/>
      <point x="629" y="1037" type="line" smooth="yes"/>
      <point x="635" y="1030"/>
      <point x="643" y="1027"/>
      <point x="652" y="1032" type="curve" smooth="yes"/>
      <point x="661" y="1037"/>
      <point x="662" y="1046"/>
      <point x="659" y="1055" type="curve" smooth="yes"/>
    </contour>
  </outline>
</glyph>
<glyph name="hook.cap" format="2">
  <advance width="485"/>
  <outline>
    <contour>
      <point x="370" y="1054" type="curve" smooth="yes"/>
      <point x="372" y="1062"/>
      <point x="380" y="1069"/>
      <point x="391" y="1071" type="curve" smooth="yes"/>
      <point x="497" y="1085"/>
      <point x="548" y="1138"/>
      <point x="562" y="1203" type="curve" smooth="yes"/>
      <point x="578" y="1270"/>
      <point x="537" y="1303"/>
      <point x="476" y="1303" type="curve" smooth="yes"/>
      <point x="401" y="1303"/>
      <point x="362" y="1269"/>
      <point x="351" y="1222" type="curve" smooth="yes"/>
      <point x="345" y="1198" type="line" smooth="yes"/>
      <point x="339" y="1169"/>
      <point x="317" y="1152"/>
      <point x="291" y="1152" type="curve" smooth="yes"/>
      <point x="267" y="1152"/>
      <point x="256" y="1173"/>
      <point x="263" y="1198" type="curve" smooth="yes"/>
      <point x="280" y="1272"/>
      <point x="382" y="1336"/>
      <point x="487" y="1336" type="curve" smooth="yes"/>
      <point x="590" y="1336"/>
      <point x="654" y="1281"/>
      <point x="632" y="1192" type="curve" smooth="yes"/>
      <point x="619" y="1127"/>
      <point x="555" y="1065"/>
      <point x="412" y="1044" type="curve" smooth="yes"/>
      <point x="374" y="1039"/>
      <point x="369" y="1045"/>
    </contour>
  </outline>
</glyph>
<glyph name="hungarumlaut.cap" format="2">
  <advance width="552"/>
  <outline>
    <contour>
      <point x="540" y="1220" type="curve" smooth="yes"/>
      <point x="412" y="1055" type="line" smooth="yes"/>
      <point x="404" y="1046"/>
      <point x="399" y="1037"/>
      <point x="404" y="1032" type="curve" smooth="yes"/>
      <point x="411" y="1027"/>
      <point x="421" y="1030"/>
      <point x="431" y="1037" type="curve" smooth="yes"/>
      <point x="600" y="1176" type="line" smooth="yes"/>
      <point x="625" y="1198"/>
      <point x="649" y="1218"/>
      <point x="659" y="1243" type="curve" smooth="yes"/>
      <point x="671" y="1268"/>
      <point x="659" y="1286"/>
      <point x="636" y="1290" type="curve" smooth="yes"/>
      <point x="602" y="1296"/>
      <point x="577" y="1266"/>
    </contour>
    <contour>
      <point x="407" y="1220" type="curve" smooth="yes"/>
      <point x="280" y="1055" type="line" smooth="yes"/>
      <point x="272" y="1046"/>
      <point x="266" y="1037"/>
      <point x="272" y="1032" type="curve" smooth="yes"/>
      <point x="279" y="1027"/>
      <point x="289" y="1030"/>
      <point x="298" y="1037" type="curve" smooth="yes"/>
      <point x="468" y="1176" type="line" smooth="yes"/>
      <point x="492" y="1198"/>
      <point x="517" y="1218"/>
      <point x="526" y="1243" type="curve" smooth="yes"/>
      <point x="537" y="1268"/>
      <point x="526" y="1286"/>
      <point x="503" y="1290" type="curve" smooth="yes"/>
      <point x="469" y="1296"/>
      <point x="443" y="1266"/>
    </contour>
  </outline>
</glyph>
<glyph name="invertedbreve.cap" format="2">
  <advance width="525"/>
  <outline>
    <contour>
      <point x="468" y="1205" type="curve" smooth="yes"/>
      <point x="555" y="1205"/>
      <point x="604" y="1165"/>
      <point x="609" y="1065" type="curve" smooth="yes"/>
      <point x="610" y="1053"/>
      <point x="614" y="1050"/>
      <point x="621" y="1050" type="curve" smooth="yes"/>
      <point x="627" y="1050"/>
      <point x="635" y="1055"/>
      <point x="637" y="1067" type="curve" smooth="yes"/>
      <point x="662" y="1189"/>
      <point x="605" y="1274"/>
      <point x="484" y="1274" type="curve" smooth="yes"/>
      <point x="363" y="1274"/>
      <point x="265" y="1189"/>
      <point x="230" y="1067" type="curve" smooth="yes"/>
      <point x="227" y="1055"/>
      <point x="232" y="1050"/>
      <point x="238" y="1050" type="curve" smooth="yes"/>
      <point x="245" y="1050"/>
      <point x="250" y="1053"/>
      <point x="256" y="1065" type="curve" smooth="yes"/>
      <point x="310" y="1165"/>
      <point x="380" y="1205"/>
    </contour>
  </outline>
</glyph>
<glyph name="l.alt" format="2">
  <advance width="538"/>
  <outline>
    <contour>
      <point x="511" y="1254" type="line" smooth="yes"/>
      <point x="562" y="1406"/>
      <point x="534" y="1458"/>
      <point x="456" y="1458" type="curve" smooth="yes"/>
      <point x="385" y="1458"/>
      <point x="317" y="1416"/>
      <point x="287" y="1367" type="curve" smooth="yes"/>
      <point x="275" y="1352"/>
      <point x="281" y="1341"/>
      <point x="289" y="1338" type="curve" smooth="yes"/>
      <point x="301" y="1332"/>
      <point x="316" y="1344"/>
      <point x="328" y="1353" type="curve" smooth="yes"/>
      <point x="366" y="1388"/>
      <point x="395" y="1402"/>
      <point x="421" y="1402" type="curve" smooth="yes"/>
      <point x="469" y="1402"/>
      <point x="485" y="1372"/>
      <point x="438" y="1227" type="curve" smooth="yes"/>
      <point x="128" y="203" type="line" smooth="yes"/>
      <point x="72" y="41"/>
      <point x="90" y="-15"/>
      <point x="183" y="-15" type="curve" smooth="yes"/>
      <point x="284" y="-15"/>
      <point x="409" y="58"/>
      <point x="425" y="136" type="curve" smooth="yes"/>
      <point x="426" y="146"/>
      <point x="420" y="154"/>
      <point x="410" y="154" type="curve" smooth="yes"/>
      <point x="402" y="155"/>
      <point x="396" y="152"/>
      <point x="389" y="143" type="curve" smooth="yes"/>
      <point x="345" y="83"/>
      <point x="273" y="43"/>
      <point x="222" y="43" type="curve" smooth="yes"/>
      <point x="156" y="43"/>
      <point x="152" y="79"/>
      <point x="198" y="224" type="curve" smooth="yes"/>
    </contour>
  </outline>
</glyph>
<glyph name="ring.cap" format="2">
  <advance width="441"/>
  <outline>
    <contour>
      <point x="386" y="1027" type="curve" smooth="yes"/>
      <point x="474" y="1027"/>
      <point x="564" y="1097"/>
      <point x="584" y="1182" type="curve" smooth="yes"/>
      <point x="603" y="1267"/>
      <point x="546" y="1337"/>
      <point x="457" y="1337" type="curve" smooth="yes"/>
      <point x="368" y="1337"/>
      <point x="279" y="1267"/>
      <point x="258" y="1182" type="curve" smooth="yes"/>
      <point x="238" y="1097"/>
      <point x="296" y="1027"/>
    </contour>
    <contour>
      <point x="446" y="1294" type="curve" smooth="yes"/>
      <point x="509" y="1294"/>
      <point x="547" y="1244"/>
      <point x="534" y="1182" type="curve" smooth="yes"/>
      <point x="520" y="1120"/>
      <point x="458" y="1069"/>
      <point x="397" y="1069" type="curve" smooth="yes"/>
      <point x="335" y="1069"/>
      <point x="295" y="1120"/>
      <point x="309" y="1182" type="curve" smooth="yes"/>
      <point x="322" y="1244"/>
      <point x="385" y="1294"/>
    </contour>
  </outline>
</glyph>
<glyph name="ringacute" format="2">
  <advance width="456"/>
  <outline>
    <contour>
      <point x="312" y="1064" type="curve" smooth="yes"/>
      <point x="402" y="1064"/>
      <point x="489" y="1137"/>
      <point x="507" y="1224" type="curve" smooth="yes"/>
      <point x="524" y="1312"/>
      <point x="466" y="1384"/>
      <point x="377" y="1384" type="curve" smooth="yes"/>
      <point x="287" y="1384"/>
      <point x="199" y="1312"/>
      <point x="182" y="1224" type="curve" smooth="yes"/>
      <point x="164" y="1137"/>
      <point x="222" y="1064"/>
    </contour>
    <contour>
      <point x="368" y="1340" type="curve" smooth="yes"/>
      <point x="429" y="1340"/>
      <point x="471" y="1288"/>
      <point x="458" y="1224" type="curve" smooth="yes"/>
      <point x="446" y="1160"/>
      <point x="384" y="1108"/>
      <point x="322" y="1108" type="curve" smooth="yes"/>
      <point x="259" y="1108"/>
      <point x="218" y="1160"/>
      <point x="231" y="1224" type="curve" smooth="yes"/>
      <point x="243" y="1288"/>
      <point x="305" y="1340"/>
    </contour>
    <contour>
      <point x="526" y="1658" type="curve" smooth="yes"/>
      <point x="345" y="1494" type="line" smooth="yes"/>
      <point x="338" y="1488"/>
      <point x="331" y="1480"/>
      <point x="335" y="1473" type="curve" smooth="yes"/>
      <point x="339" y="1468"/>
      <point x="347" y="1469"/>
      <point x="353" y="1473" type="curve" smooth="yes"/>
      <point x="572" y="1602" type="line" smooth="yes"/>
      <point x="610" y="1625"/>
      <point x="641" y="1642"/>
      <point x="650" y="1669" type="curve" smooth="yes"/>
      <point x="659" y="1690"/>
      <point x="652" y="1712"/>
      <point x="630" y="1717" type="curve" smooth="yes"/>
      <point x="601" y="1724"/>
      <point x="574" y="1700"/>
    </contour>
  </outline>
</glyph>
<glyph name="ringcmb" format="2">
  <advance width="443"/>
  <outline>
    <contour>
      <point x="296" y="1058" type="curve" smooth="yes"/>
      <point x="385" y="1058"/>
      <point x="473" y="1130"/>
      <point x="490" y="1218" type="curve" smooth="yes"/>
      <point x="508" y="1306"/>
      <point x="449" y="1378"/>
      <point x="360" y="1378" type="curve" smooth="yes"/>
      <point x="271" y="1378"/>
      <point x="182" y="1306"/>
      <point x="166" y="1218" type="curve" smooth="yes"/>
      <point x="147" y="1130"/>
      <point x="206" y="1058"/>
    </contour>
    <contour>
      <point x="351" y="1333" type="curve" smooth="yes"/>
      <point x="413" y="1333"/>
      <point x="454" y="1282"/>
      <point x="442" y="1218" type="curve" smooth="yes"/>
      <point x="429" y="1154"/>
      <point x="369" y="1102"/>
      <point x="306" y="1102" type="curve" smooth="yes"/>
      <point x="243" y="1102"/>
      <point x="202" y="1154"/>
      <point x="214" y="1218" type="curve" smooth="yes"/>
      <point x="226" y="1282"/>
      <point x="288" y="1333"/>
    </contour>
  </outline>
</glyph>
<glyph name="tilde.cap" format="2">
  <advance width="577"/>
  <outline>
    <contour>
      <point x="572" y="1066" type="curve" smooth="yes"/>
      <point x="643" y="1066"/>
      <point x="698" y="1115"/>
      <point x="722" y="1219" type="curve" smooth="yes"/>
      <point x="727" y="1237"/>
      <point x="720" y="1242"/>
      <point x="709" y="1242" type="curve" smooth="yes"/>
      <point x="694" y="1242"/>
      <point x="685" y="1234"/>
      <point x="681" y="1219" type="curve" smooth="yes"/>
      <point x="668" y="1160"/>
      <point x="640" y="1128"/>
      <point x="598" y="1128" type="curve" smooth="yes"/>
      <point x="520" y="1128"/>
      <point x="492" y="1240"/>
      <point x="385" y="1240" type="curve" smooth="yes"/>
      <point x="313" y="1240"/>
      <point x="258" y="1190"/>
      <point x="234" y="1086" type="curve" smooth="yes"/>
      <point x="230" y="1069"/>
      <point x="237" y="1063"/>
      <point x="248" y="1063" type="curve" smooth="yes"/>
      <point x="262" y="1063"/>
      <point x="272" y="1073"/>
      <point x="275" y="1086" type="curve" smooth="yes"/>
      <point x="290" y="1147"/>
      <point x="317" y="1178"/>
      <point x="358" y="1178" type="curve" smooth="yes"/>
      <point x="434" y="1178"/>
      <point x="465" y="1066"/>
    </contour>
  </outline>
</glyph>
<glyph name="w.alt" format="2">
  <advance width="1358"/>
  <outline>
    <contour>
      <point x="711" y="80" type="curve" smooth="yes"/>
      <point x="711" y="135"/>
      <point x="710" y="283"/>
      <point x="746" y="458" type="curve"/>
      <point x="751" y="442" type="line"/>
      <point x="628" y="170"/>
      <point x="428" y="-16"/>
      <point x="311" y="-16" type="curve" smooth="yes"/>
      <point x="258" y="-16"/>
      <point x="227" y="16"/>
      <point x="227" y="80" type="curve" smooth="yes"/>
      <point x="227" y="174"/>
      <point x="295" y="591"/>
      <point x="300" y="746" type="curve" smooth="yes"/>
      <point x="302" y="819"/>
      <point x="282" y="867"/>
      <point x="237" y="867" type="curve"/>
      <point x="204" y="867"/>
      <point x="179" y="847"/>
      <point x="163" y="795" type="curve" smooth="yes"/>
      <point x="156" y="771"/>
      <point x="148" y="762"/>
      <point x="138" y="762" type="curve"/>
      <point x="128" y="762"/>
      <point x="123" y="770"/>
      <point x="123" y="783" type="curve" smooth="yes"/>
      <point x="123" y="830"/>
      <point x="163" y="914"/>
      <point x="250" y="914" type="curve" smooth="yes"/>
      <point x="340" y="914"/>
      <point x="373" y="850"/>
      <point x="367" y="724" type="curve" smooth="yes"/>
      <point x="362" y="610"/>
      <point x="302" y="201"/>
      <point x="302" y="113" type="curve" smooth="yes"/>
      <point x="302" y="64"/>
      <point x="317" y="41"/>
      <point x="349" y="41" type="curve" smooth="yes"/>
      <point x="458" y="41"/>
      <point x="755" y="408"/>
      <point x="755" y="640" type="curve" smooth="yes"/>
      <point x="755" y="719"/>
      <point x="749" y="748"/>
      <point x="725" y="787" type="curve" smooth="yes"/>
      <point x="707" y="816"/>
      <point x="702" y="835"/>
      <point x="702" y="856" type="curve" smooth="yes"/>
      <point x="702" y="890"/>
      <point x="725" y="914"/>
      <point x="757" y="914" type="curve" smooth="yes"/>
      <point x="798" y="914"/>
      <point x="831" y="878"/>
      <point x="831" y="796" type="curve"/>
      <point x="831" y="683"/>
      <point x="786" y="225"/>
      <point x="786" y="113" type="curve" smooth="yes"/>
      <point x="786" y="64"/>
      <point x="801" y="41"/>
      <point x="833" y="41" type="curve" smooth="yes"/>
      <point x="940" y="41"/>
      <point x="1231" y="428"/>
      <point x="1231" y="724" type="curve" smooth="yes"/>
      <point x="1231" y="756"/>
      <point x="1226" y="769"/>
      <point x="1194" y="794" type="curve" smooth="yes"/>
      <point x="1171" y="812"/>
      <point x="1157" y="835"/>
      <point x="1157" y="862" type="curve" smooth="yes"/>
      <point x="1157" y="890"/>
      <point x="1180" y="914"/>
      <point x="1212" y="914" type="curve" smooth="yes"/>
      <point x="1253" y="914"/>
      <point x="1286" y="878"/>
      <point x="1286" y="796" type="curve" smooth="yes"/>
      <point x="1286" y="397"/>
      <point x="960" y="-16"/>
      <point x="795" y="-16" type="curve" smooth="yes"/>
      <point x="742" y="-16"/>
      <point x="711" y="16"/>
    </contour>
  </outline>
</glyph>
